<svg width="16" height="16" viewBox="0 0 16 16" fill="none" xmlns="http://www.w3.org/2000/svg">
<path fill-rule="evenodd" clip-rule="evenodd" d="M6.4375 8.34605C8.15911 8.34605 9.53914 6.94816 9.53914 5.20428C9.53914 3.46039 8.15911 2.0625 6.4375 2.0625C4.71589 2.0625 3.33586 3.46039 3.33586 5.20428C3.33586 6.94816 4.71589 8.34605 6.4375 8.34605ZM6.4375 9.88449C3.90889 9.88449 1.75 10.2888 1.75 11.904C1.75 13.5186 3.89575 13.9375 6.4375 13.9375C8.96548 13.9375 11.125 13.5332 11.125 11.918C11.125 10.3027 8.97925 9.88449 6.4375 9.88449ZM12.9362 6.49241H13.6881C13.9976 6.49241 14.25 6.74832 14.25 7.06217C14.25 7.37603 13.9976 7.63193 13.6881 7.63193H12.9362V8.36774C12.9362 8.6816 12.6845 8.9375 12.3744 8.9375C12.0649 8.9375 11.8125 8.6816 11.8125 8.36774V7.63193H11.0619C10.7517 7.63193 10.5 7.37603 10.5 7.06217C10.5 6.74832 10.7517 6.49241 11.0619 6.49241H11.8125V5.75726C11.8125 5.4434 12.0649 5.1875 12.3744 5.1875C12.6845 5.1875 12.9362 5.4434 12.9362 5.75726V6.49241Z" fill="#3669C9"/>
</svg>
