<svg width="7" height="12" viewBox="0 0 7 12" fill="none" xmlns="http://www.w3.org/2000/svg">
<path d="M4.16642 5.41086C4.32264 5.56713 4.41041 5.77906 4.41041 6.00003C4.41041 6.221 4.32264 6.43292 4.16642 6.58919L0.345585 10.4109C0.193787 10.568 0.109792 10.7785 0.111691 10.997C0.113589 11.2155 0.201231 11.4245 0.355737 11.579C0.510244 11.7335 0.719254 11.8212 0.937751 11.8231C1.15625 11.825 1.36675 11.741 1.52392 11.5892L5.34225 7.76753C5.81093 7.29871 6.07422 6.66294 6.07422 6.00003C6.07422 5.33712 5.81093 4.70135 5.34225 4.23253L1.52059 0.41086C1.36342 0.259062 1.15292 0.175066 0.934418 0.176965C0.715921 0.178864 0.50691 0.266505 0.352404 0.421012C0.197896 0.575519 0.110256 0.784529 0.108357 1.00303C0.106459 1.22152 0.190454 1.43203 0.342252 1.58919L4.16642 5.41086Z" fill="#0C1A30"/>
</svg>
