<svg width="18" height="21" viewBox="0 0 18 21" fill="none" xmlns="http://www.w3.org/2000/svg">
<path d="M10.7492 20.0039C9.45057 20.0022 8.16692 19.727 6.98164 19.1963C5.79637 18.6656 4.73561 17.8914 3.86934 16.9239C3.00307 15.9564 2.3503 14.8176 1.95332 13.5811C1.55635 12.3446 1.42443 11.0381 1.56563 9.7471C1.70682 8.45615 2.11877 7.20937 2.77364 6.08792C3.4285 4.96648 4.31149 3.9957 5.36641 3.23831C6.42134 2.48093 7.62374 1.95433 8.89571 1.69242C10.1677 1.4305 11.4809 1.43882 12.7492 1.71781C11.44 2.83491 10.4683 4.29551 9.94356 5.9346C9.41884 7.5737 9.36145 9.32639 9.77852 10.9961C10.1956 12.6659 11.071 14.1859 12.3049 15.3858C13.5387 16.5856 15.0822 17.4179 16.7629 17.7881C15.0862 19.2196 12.9539 20.0052 10.7492 20.0039V20.0039Z" stroke="#9B81E5" stroke-width="1.5" stroke-miterlimit="10" stroke-linecap="round" stroke-linejoin="round"/>
</svg>
