<svg width="19" height="15" viewBox="0 0 19 15" fill="none" xmlns="http://www.w3.org/2000/svg">
<path d="M0 1.66667C0 1.02233 0.522334 0.5 1.16667 0.5H17.5C18.1443 0.5 18.6667 1.02233 18.6667 1.66667C18.6667 2.311 18.1443 2.83333 17.5 2.83333H1.16666C0.522332 2.83333 0 2.311 0 1.66667ZM0 7.5C0 6.85567 0.522334 6.33333 1.16667 6.33333H17.5C18.1443 6.33333 18.6667 6.85567 18.6667 7.5C18.6667 8.14433 18.1443 8.66667 17.5 8.66667H1.16666C0.522332 8.66667 0 8.14433 0 7.5ZM0 13.3333C0 12.689 0.522334 12.1667 1.16667 12.1667H17.5C18.1443 12.1667 18.6667 12.689 18.6667 13.3333C18.6667 13.9777 18.1443 14.5 17.5 14.5H1.16666C0.522332 14.5 0 13.9777 0 13.3333Z" fill="#414040"/>
</svg>
