<svg width="16" height="16" viewBox="0 0 16 16" fill="none" xmlns="http://www.w3.org/2000/svg">
<path fill-rule="evenodd" clip-rule="evenodd" d="M10.7568 2.23039L10.7574 2.6989C12.4791 2.83384 13.6164 4.007 13.6182 5.8061L13.625 11.0722C13.6275 13.0337 12.3952 14.2406 10.4199 14.2437L5.59493 14.25C3.632 14.2525 2.38427 13.0169 2.3818 11.0497L2.37501 5.84545C2.37254 4.03448 3.46971 2.86445 5.19136 2.7064L5.19075 2.23788C5.19013 1.96302 5.39377 1.75625 5.66528 1.75625C5.9368 1.75563 6.14043 1.96177 6.14105 2.23663L6.14167 2.67392L9.80712 2.66892L9.8065 2.23164C9.80589 1.95678 10.0095 1.75063 10.281 1.75C10.5464 1.74938 10.7562 1.95553 10.7568 2.23039ZM3.32582 6.03853L12.6684 6.02603V5.80739C12.6419 4.46431 11.968 3.75967 10.7585 3.65472L10.7592 4.13573C10.7592 4.40434 10.55 4.61736 10.2846 4.61736C10.0131 4.61799 9.80886 4.40559 9.80886 4.13698L9.80824 3.63098L6.14279 3.63598L6.1434 4.14135C6.1434 4.41059 5.94038 4.62298 5.66887 4.62298C5.39735 4.62361 5.1931 4.41184 5.1931 4.1426L5.19248 3.66159C3.98918 3.78216 3.32335 4.4893 3.3252 5.84425L3.32582 6.03853ZM10.0244 8.87777V8.88464C10.0306 9.17199 10.2651 9.39001 10.5496 9.38376C10.8272 9.37689 11.0488 9.13889 11.0426 8.85153C11.0296 8.57667 10.8069 8.3524 10.5298 8.35303C10.2459 8.35928 10.0238 8.59041 10.0244 8.87777ZM10.535 11.6826C10.2512 11.6763 10.0222 11.4396 10.0216 11.1522C10.0154 10.8649 10.2431 10.6269 10.527 10.62H10.5332C10.8232 10.62 11.0583 10.8568 11.0583 11.1504C11.0589 11.444 10.8244 11.682 10.535 11.6826ZM7.48247 8.88772C7.49481 9.17508 7.72992 9.39934 8.01377 9.38685C8.29146 9.37373 8.51299 9.13635 8.50065 8.84899C8.49386 8.56788 8.26554 8.34924 7.98785 8.34987C7.704 8.36236 7.48185 8.60037 7.48247 8.88772ZM8.01666 11.6544C7.7328 11.6669 7.49831 11.4426 7.48535 11.1553C7.48535 10.8679 7.70688 10.6306 7.99074 10.6174C8.26843 10.6168 8.49736 10.8354 8.50353 11.1159C8.51649 11.4039 8.29434 11.6413 8.01666 11.6544ZM4.94043 8.90956C4.95277 9.19692 5.18788 9.4218 5.47174 9.40869C5.74942 9.39619 5.97095 9.15819 5.958 8.87083C5.95182 8.58972 5.72351 8.37108 5.4452 8.37171C5.16135 8.3842 4.93981 8.6222 4.94043 8.90956ZM5.47369 11.6576C5.18983 11.6707 4.95534 11.4458 4.94238 11.1585C4.94177 10.8711 5.16392 10.6331 5.44777 10.6206C5.72546 10.62 5.95439 10.8386 5.96057 11.1197C5.97352 11.4071 5.75199 11.6451 5.47369 11.6576Z" fill="#3669C9"/>
</svg>
