<svg width="12" height="12" viewBox="0 0 12 12" fill="none" xmlns="http://www.w3.org/2000/svg">
<path d="M9.59764 7.38819C9.20581 7.30391 8.89584 7.48582 8.62138 7.6447C8.3403 7.80842 7.80583 8.242 7.49947 8.13103C5.93096 7.48522 4.45574 6.11235 3.81714 4.53754C3.70458 4.22465 4.13613 3.68677 4.29864 3.40238C4.45634 3.12707 4.6345 2.81418 4.55324 2.41941C4.47981 2.06467 3.53004 0.856135 3.19418 0.525651C2.97269 0.30735 2.74578 0.187284 2.51285 0.167879C1.63711 0.130283 0.659043 1.2988 0.487506 1.57835C0.0577601 2.17443 0.0601676 2.96759 0.494729 3.92933C1.54201 6.51256 5.50302 10.4111 8.09594 11.4977C8.57444 11.7215 9.01201 11.8337 9.40504 11.8337C9.78964 11.8337 10.1321 11.7263 10.4264 11.5135C10.6485 11.3855 11.8649 10.3589 11.833 9.45963C11.8138 9.23042 11.694 9.0012 11.4785 8.77926C11.1505 8.44029 9.94974 7.46217 9.59764 7.38819Z" fill="#2D3748"/>
</svg>
