<svg width="16" height="16" viewBox="0 0 16 16" fill="none" xmlns="http://www.w3.org/2000/svg">
<path fill-rule="evenodd" clip-rule="evenodd" d="M9.76689 0.505764C9.59958 0.481781 9.43152 0.531247 9.29782 0.637674C9.16038 0.7456 9.07449 0.901492 9.05581 1.07612C9.01623 1.42913 9.27093 1.74841 9.62348 1.78813C12.0547 2.05945 13.9444 3.9534 14.2178 6.39222C14.2544 6.719 14.5285 6.96558 14.8557 6.96558C14.8803 6.96558 14.9042 6.96408 14.9289 6.96108C15.0999 6.94234 15.2523 6.85765 15.3599 6.72274C15.4667 6.58784 15.5152 6.41995 15.4958 6.24832C15.1552 3.20541 12.8002 0.843782 9.76689 0.505764ZM9.81363 3.11737C9.4566 3.05142 9.12869 3.27926 9.06072 3.62777C8.99275 3.97628 9.22131 4.31655 9.56863 4.38475C10.6143 4.58861 11.4218 5.39805 11.6264 6.44733V6.44808C11.6847 6.75012 11.9506 6.96972 12.2568 6.96972C12.2979 6.96972 12.339 6.96598 12.3808 6.95848C12.7281 6.88878 12.9567 6.54926 12.8887 6.2C12.5832 4.63283 11.3769 3.42241 9.81363 3.11737ZM11 10.3177C11.3387 10.1225 11.7211 9.90195 12.2035 10.0046C12.6405 10.0967 14.1298 11.3057 14.5377 11.7246C14.8051 11.9989 14.9537 12.2822 14.9768 12.5656C15.0172 13.677 13.5069 14.9459 13.232 15.1041C12.8668 15.3671 12.4418 15.4998 11.9645 15.4998C11.4767 15.4998 10.933 15.3611 10.3399 15.0846C7.12217 13.7415 2.20665 8.92305 0.906996 5.73025C0.367715 4.54156 0.36398 3.56124 0.898032 2.82449C1.11091 2.47898 2.32466 1.03472 3.41144 1.08044C3.7005 1.10517 3.98134 1.25357 4.25696 1.52339C4.67374 1.93186 5.85239 3.42558 5.94352 3.86403C6.04435 4.35119 5.82326 4.73868 5.62682 5.07894C5.58492 5.15209 5.52847 5.23889 5.46662 5.33399C5.2319 5.69491 4.91948 6.1753 5.03003 6.48198C5.82252 8.42764 7.65323 10.1252 9.59972 10.9227C9.90074 11.0321 10.3809 10.7174 10.7406 10.4817C10.8343 10.4202 10.9199 10.3642 10.992 10.3223L11 10.3177Z" fill="white"/>
</svg>
