<svg width="12" height="12" viewBox="0 0 12 12" fill="none" xmlns="http://www.w3.org/2000/svg">
<path fill-rule="evenodd" clip-rule="evenodd" d="M0.166016 6.00872C0.166016 2.93578 2.62185 0.166626 6.01102 0.166626C9.32435 0.166626 11.8327 2.8832 11.8327 5.9912C11.8327 9.59577 8.89268 11.8333 5.99935 11.8333C5.04268 11.8333 3.98102 11.5762 3.12935 11.0738C2.83185 10.8927 2.58102 10.7583 2.26018 10.8635L1.08185 11.214C0.784349 11.3075 0.516016 11.0738 0.603516 10.7583L0.994349 9.44972C1.05852 9.26861 1.04685 9.07582 0.953516 8.92393C0.451849 8.00088 0.166016 6.99019 0.166016 6.00872ZM5.24121 6.00874C5.24121 6.42353 5.57371 6.75653 5.98788 6.76238C6.40204 6.76238 6.73454 6.42353 6.73454 6.01459C6.73454 5.5998 6.40204 5.2668 5.98788 5.2668C5.57954 5.26096 5.24121 5.5998 5.24121 6.00874ZM7.93018 6.01463C7.93018 6.42358 8.26268 6.76242 8.67684 6.76242C9.09101 6.76242 9.42351 6.42358 9.42351 6.01463C9.42351 5.59985 9.09101 5.26685 8.67684 5.26685C8.26268 5.26685 7.93018 5.59985 7.93018 6.01463ZM3.29852 6.76235C2.89018 6.76235 2.55185 6.42351 2.55185 6.01456C2.55185 5.59978 2.88435 5.26678 3.29852 5.26678C3.71268 5.26678 4.04518 5.59978 4.04518 6.01456C4.04518 6.42351 3.71268 6.75651 3.29852 6.76235Z" fill="#2D3748"/>
</svg>
