<svg width="16" height="16" viewBox="0 0 16 16" fill="none" xmlns="http://www.w3.org/2000/svg">
<path fill-rule="evenodd" clip-rule="evenodd" d="M5.38125 1.75H10.6194C12.55 1.75 13.625 2.8625 13.625 4.76875V11.225C13.625 13.1625 12.55 14.25 10.6194 14.25H5.38125C3.48125 14.25 2.375 13.1625 2.375 11.225V4.76875C2.375 2.8625 3.48125 1.75 5.38125 1.75ZM5.55 4.6625V4.65625H7.41813C7.6875 4.65625 7.90625 4.875 7.90625 5.14312C7.90625 5.41875 7.6875 5.6375 7.41813 5.6375H5.55C5.28062 5.6375 5.0625 5.41875 5.0625 5.15C5.0625 4.88125 5.28062 4.6625 5.55 4.6625ZM5.55 8.4625H10.45C10.7187 8.4625 10.9375 8.24375 10.9375 7.975C10.9375 7.70625 10.7187 7.48688 10.45 7.48688H5.55C5.28062 7.48688 5.0625 7.70625 5.0625 7.975C5.0625 8.24375 5.28062 8.4625 5.55 8.4625ZM5.54961 11.3188H10.4496C10.699 11.2938 10.8871 11.0806 10.8871 10.8313C10.8871 10.575 10.699 10.3625 10.4496 10.3375H5.54961C5.36211 10.3188 5.18086 10.4062 5.08086 10.5688C4.98086 10.725 4.98086 10.9313 5.08086 11.0938C5.18086 11.25 5.36211 11.3438 5.54961 11.3188Z" fill="#3669C9"/>
</svg>
