<svg width="10" height="11" viewBox="0 0 10 11" fill="none" xmlns="http://www.w3.org/2000/svg">
<path d="M9.56991 8.40127C9.56991 8.56627 9.53324 8.73585 9.45532 8.90085C9.37741 9.06585 9.27658 9.22169 9.14366 9.36835C8.91908 9.61585 8.67157 9.7946 8.39199 9.90919C8.11699 10.0238 7.81908 10.0834 7.49824 10.0834C7.03074 10.0834 6.53116 9.97335 6.00408 9.74877C5.47699 9.52419 4.94991 9.22169 4.42741 8.84127C3.90033 8.45627 3.40074 8.03002 2.92408 7.55794C2.45199 7.08127 2.02574 6.58169 1.64533 6.05919C1.26949 5.53669 0.966992 5.01419 0.746992 4.49627C0.526992 3.97377 0.416992 3.47419 0.416992 2.99752C0.416992 2.68585 0.471992 2.38794 0.581992 2.11294C0.691992 1.83335 0.866159 1.57669 1.10908 1.34752C1.40241 1.05877 1.72324 0.916687 2.06241 0.916687C2.19074 0.916687 2.31908 0.944187 2.43366 0.999187C2.55283 1.05419 2.65824 1.13669 2.74074 1.25585L3.80408 2.7546C3.88658 2.86919 3.94616 2.9746 3.98741 3.07544C4.02866 3.17169 4.05158 3.26794 4.05158 3.35502C4.05158 3.46502 4.01949 3.57502 3.95533 3.68044C3.89574 3.78585 3.80866 3.89585 3.69866 4.00585L3.35033 4.36794C3.29991 4.41835 3.27699 4.47794 3.27699 4.55127C3.27699 4.58794 3.28158 4.62002 3.29074 4.65669C3.30449 4.69335 3.31824 4.72085 3.32741 4.74835C3.40991 4.8996 3.55199 5.09669 3.75366 5.33502C3.95991 5.57335 4.17991 5.81627 4.41824 6.05919C4.66574 6.3021 4.90408 6.52669 5.14699 6.73294C5.38533 6.9346 5.58241 7.0721 5.73824 7.1546C5.76116 7.16377 5.78866 7.17752 5.82074 7.19127C5.85741 7.20502 5.89408 7.2096 5.93533 7.2096C6.01324 7.2096 6.07283 7.1821 6.12324 7.13169L6.47158 6.78794C6.58616 6.67335 6.69616 6.58627 6.80158 6.53127C6.90699 6.4671 7.01241 6.43502 7.12699 6.43502C7.21407 6.43502 7.30574 6.45335 7.40658 6.4946C7.50741 6.53585 7.61283 6.59544 7.72741 6.67335L9.24449 7.75044C9.36366 7.83294 9.44616 7.92919 9.49657 8.04377C9.54241 8.15835 9.56991 8.27294 9.56991 8.40127Z" stroke="#0C1A30" stroke-width="0.6875" stroke-miterlimit="10"/>
</svg>
