<svg width="173" height="154" viewBox="0 0 173 154" fill="none" xmlns="http://www.w3.org/2000/svg">
<g clip-path="url(#clip0_1326_17260)">
<path d="M72.4155 12.476L128.119 108.957C128.759 110.066 127.959 111.452 126.678 111.452H15.2717C13.9911 111.452 13.1908 110.066 13.8311 108.957L69.5343 12.476C70.1745 11.367 71.7752 11.367 72.4155 12.476Z" stroke="#2D3748" stroke-width="9.98077"/>
<path d="M106.919 12.476L162.623 108.957C163.263 110.066 162.462 111.452 161.182 111.452H49.7756C48.4951 111.452 47.6947 110.066 48.335 108.957L104.038 12.476C104.678 11.367 106.279 11.367 106.919 12.476Z" stroke="#2D3748" stroke-width="9.98077"/>
<path d="M89.6547 43.5277L145.358 140.008C145.998 141.117 145.198 142.504 143.917 142.504H32.5109C31.2304 142.504 30.4301 141.117 31.0703 140.008L86.7735 43.5277C87.4138 42.4187 89.0144 42.4187 89.6547 43.5277Z" stroke="#2D3748" stroke-width="9.98077"/>
</g>
<defs>
<clipPath id="clip0_1326_17260">
<rect width="173" height="153.038" fill="white"/>
</clipPath>
</defs>
</svg>
