<svg width="25" height="24" viewBox="0 0 25 24" fill="none" xmlns="http://www.w3.org/2000/svg">
<path fill-rule="evenodd" clip-rule="evenodd" d="M6.98311 2.81529C3.31152 3.99738 1.67386 8.00569 2.90482 11.8295C3.52947 13.6301 4.54534 15.2485 5.88004 16.5762C7.71101 18.3545 9.72254 19.9194 11.8849 21.2491L12.1304 21.3961C12.3656 21.5369 12.6598 21.5344 12.8926 21.3897L13.1218 21.2473C15.2812 19.9194 17.2927 18.3545 19.1174 16.5824C20.4584 15.2485 21.4743 13.6301 22.0937 11.8452C23.3291 8.00801 21.6847 3.9978 18.012 2.81535L17.7463 2.73623C16.0624 2.27309 14.273 2.5013 12.7645 3.35535L12.4964 3.51429L12.233 3.35623C10.6419 2.45344 8.7404 2.25003 6.98311 2.81529ZM11.875 4.85416L12.0717 4.99527C12.3311 5.181 12.681 5.17731 12.9363 4.98614C14.2664 3.99046 15.9876 3.70071 17.5644 4.20658C20.41 5.12273 21.705 8.28085 20.7068 11.3819C20.1653 12.9416 19.269 14.3695 18.092 15.5404L17.564 16.042C16.1414 17.3641 14.6029 18.5608 12.9695 19.6155L12.5016 19.9097L12.6444 19.9997C10.5808 18.7307 8.6541 17.2318 6.90617 15.5342C5.7354 14.3695 4.83912 12.9416 4.29242 11.3662C3.29843 8.2779 4.58781 5.12201 7.43189 4.20635C8.93366 3.72328 10.5709 3.96278 11.875 4.85416ZM16.3701 6.48358C15.9854 6.36077 15.5738 6.57288 15.4509 6.95733C15.328 7.34178 15.5403 7.753 15.925 7.87581C16.6813 8.11719 17.2204 8.79787 17.288 9.6008C17.3218 10.003 17.6756 10.3016 18.0781 10.2678C18.4806 10.234 18.7794 9.88054 18.7456 9.47837C18.6287 8.08843 17.6916 6.90535 16.3701 6.48358Z" fill="red"/>
</svg>
