<svg width="16" height="16" viewBox="0 0 16 16" fill="none" xmlns="http://www.w3.org/2000/svg">
<path fill-rule="evenodd" clip-rule="evenodd" d="M10.4063 2.06297C10.8006 2.06297 11.1944 2.11859 11.5688 2.24422C13.8756 2.99422 14.7069 5.52547 14.0125 7.73797C13.6188 8.86859 12.975 9.90047 12.1319 10.7436C10.925 11.9123 9.60064 12.9498 8.17501 13.8436L8.01876 13.938L7.85626 13.8373C6.42564 12.9498 5.09376 11.9123 3.87564 10.7373C3.03814 9.89422 2.39376 8.86859 1.99376 7.73797C1.28751 5.52547 2.11876 2.99422 4.45064 2.23109C4.63189 2.16859 4.81876 2.12484 5.00626 2.10047H5.08126C5.25689 2.07484 5.43126 2.06297 5.60626 2.06297H5.67501C6.06876 2.07484 6.45001 2.14359 6.81939 2.26922H6.85626C6.88126 2.28109 6.90001 2.29422 6.91251 2.30609C7.05064 2.35047 7.18126 2.40047 7.30626 2.46922L7.54376 2.57547C7.60115 2.60607 7.66557 2.65284 7.72124 2.69326C7.75651 2.71887 7.78827 2.74193 7.81251 2.75672C7.82271 2.76273 7.83308 2.76879 7.84353 2.77489C7.89712 2.80617 7.95294 2.83875 8.00001 2.87484C8.69439 2.34422 9.53751 2.05672 10.4063 2.06297ZM12.0685 6.56296C12.3247 6.55609 12.5435 6.35046 12.5622 6.08734V6.01296C12.581 5.13734 12.0504 4.34421 11.2435 4.03796C10.9872 3.94984 10.706 4.08796 10.6122 4.35046C10.5247 4.61296 10.6622 4.90046 10.9247 4.99359C11.3254 5.14359 11.5935 5.53796 11.5935 5.97484V5.99421C11.5816 6.13734 11.6247 6.27546 11.7122 6.38171C11.7997 6.48796 11.931 6.54984 12.0685 6.56296Z" stroke="black" />
</svg>
