<svg width="12" height="14" viewBox="0 0 12 14" fill="none" xmlns="http://www.w3.org/2000/svg">
<path d="M4.20924 12.4833V10.5723C4.20924 10.0844 4.60761 9.68894 5.09902 9.68894H6.89538C7.13137 9.68894 7.35769 9.78201 7.52456 9.94766C7.69142 10.1133 7.78517 10.338 7.78517 10.5723V12.4833C7.78368 12.6862 7.86379 12.8812 8.00773 13.0251C8.15167 13.169 8.34753 13.25 8.55184 13.25H9.77739C10.3498 13.2515 10.8992 13.0268 11.3045 12.6255C11.7097 12.2242 11.9375 11.6794 11.9375 11.1111V5.66679C11.9375 5.20779 11.7325 4.7724 11.3779 4.47792L7.20877 1.17242C6.48354 0.592851 5.44445 0.611564 4.74087 1.21686L0.666883 4.47792C0.295463 4.76372 0.0734702 5.2004 0.0625 5.66679V11.1056C0.0625 12.2899 1.02961 13.25 2.22261 13.25H3.42018C3.84452 13.25 4.18937 12.9101 4.19245 12.4889L4.20924 12.4833Z" fill="white"/>
</svg>
