<svg width="23" height="23" viewBox="0 0 23 23" fill="none" xmlns="http://www.w3.org/2000/svg">
<rect x="7" width="16" height="16" rx="8" fill="#EFF5FB"/>
<path d="M8.15722 20.7714V17.7047C8.1572 16.9246 8.79312 16.2908 9.58101 16.2856H12.4671C13.2587 16.2856 13.9005 16.9209 13.9005 17.7047V17.7047V20.7809C13.9003 21.4432 14.4343 21.9845 15.103 22H17.0271C18.9451 22 20.5 20.4607 20.5 18.5618V18.5618V9.83784C20.4898 9.09083 20.1355 8.38935 19.538 7.93303L12.9577 2.6853C11.8049 1.77157 10.1662 1.77157 9.01342 2.6853L2.46203 7.94256C1.86226 8.39702 1.50739 9.09967 1.5 9.84736V18.5618C1.5 20.4607 3.05488 22 4.97291 22H6.89696C7.58235 22 8.13797 21.4499 8.13797 20.7714V20.7714" stroke="#3669C9" stroke-width="2" stroke-linecap="round" stroke-linejoin="round"/>
</svg>
