<svg width="105" height="23" viewBox="0 0 105 23" fill="none" xmlns="http://www.w3.org/2000/svg">
<g clip-path="url(#clip0_611_4939)">
<path d="M10.9502 1.875C11.0464 1.70833 11.2869 1.70833 11.3832 1.875L19.7547 16.375C19.851 16.5417 19.7307 16.75 19.5382 16.75H2.79509C2.60264 16.75 2.48236 16.5417 2.57858 16.375L10.9502 1.875Z" stroke="#2D3748" stroke-width="1.5"/>
<path d="M16.1357 1.875C16.2319 1.70833 16.4725 1.70833 16.5687 1.875L24.9403 16.375C25.0365 16.5417 24.9162 16.75 24.7238 16.75H7.98063C7.78818 16.75 7.6679 16.5417 7.76413 16.375L16.1357 1.875Z" stroke="#2D3748" stroke-width="1.5"/>
<path d="M13.541 6.54175C13.6372 6.37508 13.8778 6.37508 13.974 6.54175L22.3456 21.0417C22.4418 21.2084 22.3215 21.4167 22.1291 21.4167H5.38591C5.19346 21.4167 5.07318 21.2084 5.1694 21.0417L13.541 6.54175Z" stroke="#2D3748" stroke-width="1.5"/>
</g>
<path d="M42.294 16L38.71 6.2H40.628L43.4 14.166L46.186 6.2H48.076L44.492 16H42.294ZM53.5049 16.168C52.5249 16.168 51.6663 15.9533 50.9289 15.524C50.2009 15.0947 49.6269 14.502 49.2069 13.746C48.7963 12.9807 48.5909 12.0987 48.5909 11.1C48.5909 10.1013 48.7963 9.224 49.2069 8.468C49.6269 7.70267 50.2009 7.10533 50.9289 6.676C51.6663 6.24667 52.5249 6.032 53.5049 6.032C54.4756 6.032 55.3296 6.24667 56.0669 6.676C56.8043 7.10533 57.3783 7.70267 57.7889 8.468C58.1996 9.224 58.4049 10.1013 58.4049 11.1C58.4049 12.0987 58.1996 12.9807 57.7889 13.746C57.3783 14.502 56.8043 15.0947 56.0669 15.524C55.3296 15.9533 54.4756 16.168 53.5049 16.168ZM53.5049 14.558C54.4383 14.558 55.1803 14.25 55.7309 13.634C56.2909 13.018 56.5709 12.1733 56.5709 11.1C56.5709 10.0267 56.2909 9.182 55.7309 8.566C55.1803 7.95 54.4383 7.642 53.5049 7.642C52.5716 7.642 51.8249 7.95 51.2649 8.566C50.7049 9.182 50.4249 10.0267 50.4249 11.1C50.4249 12.1733 50.7049 13.018 51.2649 13.634C51.8249 14.25 52.5716 14.558 53.5049 14.558ZM61.8923 16V12.514L58.6023 6.2H60.6323L62.8023 10.722L64.9583 6.2H66.9603L63.6843 12.514V16H61.8923ZM66.3435 16L69.9275 6.2H71.9435L75.5275 16H73.6235L72.8395 13.732H69.0175L68.2195 16H66.3435ZM69.5075 12.332H72.3495L70.9215 8.258L69.5075 12.332ZM76.7899 16V6.2H78.5819L83.1879 13.102V6.2H84.9799V16H83.1879L78.5819 9.112V16H76.7899ZM91.3177 16.168C90.3284 16.168 89.4791 15.958 88.7697 15.538C88.0604 15.1087 87.5144 14.516 87.1317 13.76C86.7491 12.9947 86.5577 12.1127 86.5577 11.114C86.5577 10.1153 86.7491 9.23333 87.1317 8.468C87.5144 7.70267 88.0604 7.10533 88.7697 6.676C89.4791 6.24667 90.3284 6.032 91.3177 6.032C92.4937 6.032 93.4551 6.326 94.2017 6.914C94.9577 7.49267 95.4291 8.30933 95.6157 9.364H93.6417C93.5204 8.832 93.2591 8.41667 92.8577 8.118C92.4657 7.81 91.9431 7.656 91.2897 7.656C90.3844 7.656 89.6751 7.964 89.1617 8.58C88.6484 9.196 88.3917 10.0407 88.3917 11.114C88.3917 12.1873 88.6484 13.032 89.1617 13.648C89.6751 14.2547 90.3844 14.558 91.2897 14.558C91.9431 14.558 92.4657 14.418 92.8577 14.138C93.2591 13.8487 93.5204 13.452 93.6417 12.948H95.6157C95.4291 13.956 94.9577 14.7447 94.2017 15.314C93.4551 15.8833 92.4937 16.168 91.3177 16.168ZM97.202 16V6.2H103.6V7.642H98.994V10.33H103.18V11.73H98.994V14.558H103.6V16H97.202Z" fill="#2D3748"/>
<defs>
<clipPath id="clip0_611_4939">
<rect width="26" height="23" fill="white" transform="translate(0.5)"/>
</clipPath>
</defs>
</svg>
