<svg width="24" height="24" viewBox="0 0 24 24" fill="none" xmlns="http://www.w3.org/2000/svg">
<path d="M6.934 17.5C6.1759 17.4806 5.4411 17.763 4.89099 18.285C4.34088 18.8069 4.02042 19.5259 4 20.284V22.5L20 22.5V20.284C19.9798 19.5258 19.6595 18.8067 19.1093 18.2847C18.5591 17.7626 17.8242 17.4804 17.066 17.5H6.934Z" fill="#E4F3EA" stroke="#3A9B7A" stroke-width="1.5" stroke-miterlimit="10" stroke-linecap="round" stroke-linejoin="round"/>
<path d="M12 1.5C13.78 1.5 15.5201 2.02784 17.0001 3.01677C18.4802 4.00571 19.6337 5.41131 20.3149 7.05585C20.9961 8.70038 21.1743 10.51 20.8271 12.2558C20.4798 14.0016 19.6226 15.6053 18.364 16.864C17.1053 18.1226 15.5016 18.9798 13.7558 19.3271C12.01 19.6743 10.2004 19.4961 8.55585 18.8149C6.91131 18.1337 5.50571 16.9802 4.51677 15.5001C3.52784 14.0201 3 12.28 3 10.5C3 8.11305 3.94821 5.82387 5.63604 4.13604C7.32387 2.44821 9.61305 1.5 12 1.5V1.5Z" fill="#E4F3EA" stroke="#3A9B7A" stroke-width="1.5" stroke-miterlimit="10" stroke-linecap="round" stroke-linejoin="round"/>
</svg>
