<svg width="25" height="24" viewBox="0 0 25 24" fill="none" xmlns="http://www.w3.org/2000/svg">
<path fill-rule="evenodd" clip-rule="evenodd" d="M10.3775 15.2065C6.53349 15.2065 3.25049 15.7875 3.25049 18.1155C3.25049 20.4425 6.51249 21.0455 10.3775 21.0455C14.2215 21.0455 17.5045 20.4635 17.5045 18.1365C17.5045 15.8095 14.2425 15.2065 10.3775 15.2065Z" stroke="#200E32" stroke-width="1.5" stroke-linecap="round" stroke-linejoin="round"/>
<path fill-rule="evenodd" clip-rule="evenodd" d="M10.3776 11.886C12.9136 11.886 14.9456 9.853 14.9456 7.318C14.9456 4.782 12.9136 2.75 10.3776 2.75C7.84257 2.75 5.80957 4.782 5.80957 7.318C5.80957 9.853 7.84257 11.886 10.3776 11.886Z" stroke="#200E32" stroke-width="1.5" stroke-linecap="round" stroke-linejoin="round"/>
<path d="M19.7041 8.66943V12.6794" stroke="#200E32" stroke-width="1.5" stroke-linecap="round" stroke-linejoin="round"/>
<path d="M21.7502 10.6743H17.6602" stroke="#200E32" stroke-width="1.5" stroke-linecap="round" stroke-linejoin="round"/>
</svg>
