<svg width="243" height="242" viewBox="0 0 243 242" fill="none" xmlns="http://www.w3.org/2000/svg">
<path d="M163.245 173.595C166.754 173.595 168.166 175.127 164.939 175.732C161.712 176.337 160.018 177.144 163.124 177.467C166.23 177.789 182.282 177.144 184.138 179.201C185.953 181.258 139.327 181.54 129.284 181.54C119.241 181.54 106.778 181.5 94.4767 179.887C87.7814 178.999 84.2724 175.369 89.2334 174.724C101.333 173.07 159.696 173.595 163.245 173.595Z" fill="#C5DFFF"/>
<path d="M87.015 181.016C88.709 181.016 89.3543 182.791 87.8217 183.476C86.289 184.162 75.6007 190.172 70.8413 190.172C66.082 190.172 66.0013 189.486 64.7107 188.155C63.42 186.864 57.5717 185.695 54.345 185.574C51.1183 185.453 49.384 183.033 51.7233 182.266C57.5313 180.411 85.321 181.016 87.015 181.016Z" fill="#C5DFFF"/>
<path d="M194.907 181.782C195.552 181.823 196.439 182.75 196.117 183.678C195.229 186.058 192.527 187.469 188.494 187.308C182.161 187.066 181.919 182.952 184.783 182.226C187.243 181.54 194.261 181.742 194.907 181.782Z" fill="#C5DFFF"/>
<path d="M89.7577 180.25L68.381 189.123C68.381 189.123 63.783 188.881 58.217 186.058C54.1837 184.001 49.7067 178.031 49.7067 178.031L52.046 177.668L75.7217 173.796C75.7217 173.796 76.6493 175.087 79.634 177.346C80.0373 177.668 80.5617 177.951 81.1263 178.233C84.474 179.725 89.7577 180.25 89.7577 180.25Z" fill="#5285E6"/>
<path d="M89.7577 180.25L83.4657 182.871L68.3407 189.123C68.3407 189.123 63.7427 188.881 58.1767 186.058C56.4827 185.211 54.708 183.638 53.2157 182.105C51.1587 180.008 49.6664 178.031 49.6664 178.031L52.0057 177.668C54.8694 178.636 59.3867 179.725 65.114 179.806C72.0917 179.927 77.9804 178.878 81.0861 178.193C84.474 179.725 89.7577 180.25 89.7577 180.25Z" fill="#4276D9"/>
<path d="M83.5061 182.831L68.3811 189.083C68.3811 189.083 63.7831 188.841 58.2171 186.017C56.5231 185.17 54.7484 183.597 53.2561 182.065C56.8458 182.871 61.8068 183.678 67.8164 183.759C73.9471 183.88 79.4324 183.396 83.5061 182.831Z" fill="#3669C9"/>
<path d="M69.1877 187.792C69.0263 188.115 68.4213 188.357 67.8567 188.357C67.292 188.357 67.0097 188.115 67.171 187.792C67.3323 187.469 67.9373 187.227 68.502 187.227C69.0667 187.227 69.349 187.51 69.1877 187.792Z" fill="#5285E6"/>
<path d="M87.0151 180.734C86.8537 181.056 86.2487 181.298 85.6841 181.298C85.1194 181.298 84.8371 181.056 84.9984 180.734C85.1597 180.411 85.7647 180.169 86.3294 180.169C86.8941 180.209 87.1764 180.451 87.0151 180.734Z" fill="#5285E6"/>
<path d="M75.8428 175.047C75.6411 175.329 75.0361 175.531 74.4714 175.45C73.9067 175.41 73.6244 175.127 73.8261 174.845C74.0278 174.563 74.6327 174.361 75.1974 174.442C75.8024 174.482 76.0848 174.764 75.8428 175.047Z" fill="#4276D9"/>
<path d="M53.1754 178.838C52.9737 179.12 52.3284 179.282 51.804 179.201C51.2394 179.12 50.9974 178.838 51.199 178.556C51.4007 178.273 52.046 178.112 52.5704 178.193C53.135 178.273 53.377 178.556 53.1754 178.838Z" fill="#5285E6"/>
<path d="M194.503 179.846L190.147 179.403L186.558 181.742L188.695 184.485L193.172 184.767L195.915 182.347L194.503 179.846ZM191.398 183.194C190.712 183.194 190.147 182.952 189.744 182.629C190.107 182.226 190.793 181.944 191.599 181.944C192.285 181.944 192.85 182.186 193.253 182.508C192.93 182.912 192.204 183.194 191.398 183.194Z" fill="#5285E6"/>
<path d="M186.558 181.702L186.921 184.727L188.776 186.582L188.655 184.444L186.558 181.702Z" fill="#3669C9"/>
<path d="M188.776 186.582L193.172 186.864L193.132 184.727L188.655 184.444L188.776 186.582Z" fill="#4276D9"/>
<path d="M195.875 182.307L195.754 184.364L193.172 186.864L193.132 184.727L195.875 182.307Z" fill="#6696F0"/>
<path d="M193.535 181.903C193.535 182.145 193.455 182.347 193.293 182.508C192.93 182.186 192.325 181.944 191.64 181.944C190.833 181.944 190.147 182.186 189.784 182.629C189.502 182.387 189.341 182.105 189.381 181.782C189.381 181.056 190.349 180.451 191.519 180.492C192.608 180.532 193.535 181.137 193.535 181.903Z" fill="#3669C9"/>
<path d="M97.9452 194.649C94.6782 195.98 91.5322 194.326 91.5322 194.326L72.9789 203.361C72.9386 204.006 72.5352 208.281 67.4936 209.37C62.8956 210.338 61.0402 207.636 61.0402 207.636L62.0082 207.071L66.8886 204.208L65.2752 202.393L59.3059 205.216C59.3059 205.216 59.0236 204.571 59.0236 203.643C59.0236 203.24 59.0639 202.756 59.2252 202.272C59.7496 200.739 61.6049 198.44 64.8719 197.916C68.1389 197.391 69.7119 198.682 69.7119 198.682L89.5156 190.252C89.5156 190.252 89.5559 189.083 90.4836 188.155C91.3709 187.187 92.9842 185.896 95.2026 186.098C96.4529 186.179 97.3806 186.582 97.9049 186.905C98.3486 187.147 98.5502 187.348 98.5502 187.348L93.6296 190.01L95.4042 191.987L99.9619 189.607C99.9619 189.607 100.325 189.809 100.607 190.454C100.648 190.575 100.688 190.696 100.728 190.817C101.051 191.785 101.212 193.318 97.9452 194.649Z" fill="#D2E9FF"/>
<path d="M97.7839 195.173C94.5169 196.504 91.5323 194.366 91.5323 194.366L72.9789 203.401C72.9386 204.046 72.5353 208.322 67.4936 209.411C62.8956 210.379 61.0403 207.676 61.0403 207.676L62.0083 207.112C62.8956 207.717 64.9929 208.725 68.1389 207.636C72.4143 206.144 72.0109 202.07 72.0109 202.07L91.6533 193.076C91.6533 193.076 94.4766 195.254 98.0259 193.519C100.123 192.511 100.648 191.261 100.688 190.454C100.728 190.575 100.769 190.696 100.809 190.817C101.051 191.785 101.051 193.802 97.7839 195.173Z" fill="#AED8FC"/>
<path d="M67.4936 203.764L66.8483 204.288L65.235 202.473L59.2656 205.297C59.2656 205.297 58.9833 204.651 58.9833 203.724L65.3156 201.183L67.4936 203.764Z" fill="#AED8FC"/>
<path d="M98.5906 187.389L93.67 190.051L93.3473 189.405L97.9453 186.945C98.3486 187.147 98.5906 187.389 98.5906 187.389Z" fill="#AED8FC"/>
<path d="M112.344 191.462C112.143 192.43 111.699 193.116 110.973 193.398C110.691 193.519 110.328 193.6 109.965 193.56C108.714 193.439 107.988 192.027 108.311 189.647C108.634 187.268 110.045 186.784 111.054 186.985C111.134 187.026 111.215 187.026 111.296 187.066C112.465 187.631 112.586 190.172 112.344 191.462Z" fill="#5285E6"/>
<path d="M112.344 191.462C112.143 192.43 111.699 193.116 110.973 193.398C109.723 193.237 109.279 191.664 109.561 189.607C109.763 188.155 110.166 187.348 111.296 187.066C112.465 187.631 112.586 190.172 112.344 191.462Z" fill="#3669C9"/>
<path d="M119.927 190.575C119.967 190.777 119.887 190.978 119.806 191.14C119.604 191.583 119.201 191.906 119.201 191.906L110.771 191.543C110.771 191.543 109.682 190.131 111.094 189.083H111.457L119.443 189.365C119.443 189.405 119.846 189.849 119.927 190.575Z" fill="#5285E6"/>
<path d="M119.806 191.18C119.604 191.624 119.201 191.946 119.201 191.946L110.771 191.583C110.771 191.583 109.682 190.172 111.094 189.123H111.457C111.417 189.365 111.417 189.97 112.022 190.414C112.586 190.857 117.426 191.099 119.806 191.18Z" fill="#3669C9"/>
<path d="M142.715 194.205C142.433 194.205 142.11 194.124 141.828 194.003C140.86 193.56 140.134 190.978 140.134 188.962C140.134 187.873 140.295 186.905 140.618 186.138C140.255 186.098 139.892 186.138 139.529 186.259C137.109 187.066 137.633 190.414 137.633 190.414C137.674 190.696 137.472 190.978 137.19 191.019C136.907 191.059 136.625 190.857 136.585 190.575C136.343 189.123 136.585 186.138 139.166 185.251C139.852 185.009 140.537 184.969 141.142 185.13C141.505 184.646 141.949 184.283 142.473 184.041C143.885 183.355 145.216 183.234 146.386 183.678C146.789 183.033 147.313 182.549 147.918 182.307C149.007 181.863 150.056 181.863 150.984 182.307C152.637 183.073 153.444 184.888 153.686 185.654C154.331 187.469 154.049 189.042 154.049 189.123C154.009 189.405 153.726 189.607 153.444 189.526C153.162 189.486 152.96 189.204 153.041 188.921C153.041 188.921 153.283 187.55 152.718 185.977C152.557 185.493 151.871 183.839 150.58 183.234C149.895 182.912 149.169 182.952 148.322 183.275C147.878 183.436 147.555 183.759 147.313 184.162C148.362 184.848 149.169 186.058 149.653 187.55C150.217 189.365 149.975 191.059 149.048 191.704C148.443 192.108 147.717 192.027 147.031 191.462C145.942 190.575 145.337 187.913 145.7 185.654C145.74 185.291 145.861 184.928 145.942 184.606C145.055 184.323 144.046 184.444 142.917 184.969C142.594 185.13 142.352 185.332 142.11 185.574C143.32 186.421 144.208 188.236 144.49 190.494C144.732 192.551 144.167 193.479 143.643 193.842C143.401 194.124 143.078 194.205 142.715 194.205ZM141.586 186.501C141.304 187.147 141.183 187.873 141.183 188.478C141.062 190.777 141.909 192.834 142.272 193.035C142.433 193.116 142.796 193.237 143.078 193.035C143.482 192.713 143.643 191.825 143.522 190.656C143.32 189.163 142.715 187.308 141.586 186.501ZM146.91 185.17C146.829 185.412 146.789 185.695 146.749 185.896C146.426 187.873 147.031 190.172 147.717 190.736C148.039 190.978 148.281 191.059 148.483 190.938C148.886 190.656 149.209 189.567 148.685 187.953C148.322 186.703 147.676 185.735 146.91 185.17Z" fill="#1C3177"/>
<path d="M131.987 209.612C131.987 209.774 131.987 209.935 131.946 210.056C131.624 211.347 130.736 211.105 129.728 210.782C128.72 210.419 123.275 206.991 122.065 206.265C120.855 205.539 119.806 205.095 119.806 205.095L120.451 203.724L121.379 201.667C121.379 201.667 126.663 204.006 128.881 205.539C130.857 206.91 131.987 208.402 131.987 209.612Z" fill="#1C3177"/>
<path d="M131.987 209.612C131.987 209.774 131.987 209.935 131.946 210.056C131.624 211.347 130.736 211.105 129.728 210.782C128.72 210.419 123.275 206.991 122.065 206.265C120.855 205.539 119.806 205.095 119.806 205.095L120.451 203.724C122.347 204.893 126.703 206.668 129.97 208.765C130.696 209.209 131.583 209.653 131.987 209.612Z" fill="#0E2566"/>
<path d="M132.753 214.009C132.753 214.17 132.753 214.331 132.713 214.452C132.39 215.743 131.503 215.501 130.494 215.178C129.486 214.815 121.056 209.693 119.846 208.967C118.636 208.241 117.588 207.797 117.588 207.797L118.233 206.426L119.161 204.369C119.161 204.369 127.429 208.362 129.647 209.935C131.583 211.306 132.713 212.799 132.753 214.009Z" fill="#1C3177"/>
<path d="M132.753 214.009C132.753 214.17 132.753 214.331 132.713 214.452C132.39 215.743 131.503 215.501 130.494 215.178C129.486 214.815 121.056 209.693 119.846 208.967C118.636 208.241 117.588 207.797 117.588 207.797L118.233 206.426C120.129 207.596 129.768 213.323 131.261 213.847C131.825 214.009 132.309 214.049 132.753 214.009Z" fill="#0E2566"/>
<path d="M130.333 216.792C130.333 216.953 130.333 217.114 130.293 217.235C129.97 218.526 129.083 218.284 128.074 217.961C127.066 217.598 118.636 212.476 117.426 211.75C116.216 211.024 115.168 210.58 115.168 210.58L115.813 209.209L116.741 207.152C116.741 207.152 124.807 211.589 126.985 213.162C129.002 214.533 130.333 215.582 130.333 216.792Z" fill="#1C3177"/>
<path d="M130.333 216.792C130.333 216.953 130.333 217.114 130.293 217.235C129.97 218.526 129.083 218.284 128.074 217.961C127.066 217.598 118.636 212.476 117.426 211.75C116.216 211.024 115.168 210.58 115.168 210.58L115.813 209.209C117.709 210.379 127.348 216.106 128.841 216.63C129.446 216.792 129.93 216.832 130.333 216.792Z" fill="#0E2566"/>
<path d="M125.937 217.437C125.937 217.598 125.937 217.76 125.937 217.881C125.695 219.212 124.807 219.01 123.799 218.768C122.791 218.486 113.958 214.009 112.707 213.404C111.457 212.758 110.368 212.395 110.368 212.395L110.892 210.984L112.223 208.564C112.223 208.564 120.169 212.92 122.508 214.291C124.525 215.541 125.856 216.227 125.937 217.437Z" fill="#1C3177"/>
<path d="M125.937 217.437C125.937 217.598 125.937 217.76 125.937 217.881C125.695 219.212 124.807 219.01 123.799 218.768C122.791 218.486 113.958 214.009 112.707 213.404C111.457 212.758 110.368 212.395 110.368 212.395L111.578 210.379C113.554 211.387 122.912 216.993 124.444 217.397C125.049 217.518 125.533 217.518 125.937 217.437Z" fill="#0E2566"/>
<path d="M121.419 201.667C121.419 201.667 120.451 204.611 118.233 207.878C117.386 209.128 116.62 210.258 115.974 211.185C115.652 211.629 115.369 212.032 115.127 212.395C114.401 213.404 113.958 214.009 113.958 214.009C113.958 214.009 110.973 213.121 107.867 211.306C104.762 209.491 102.1 207.394 101.414 206.547C100.567 205.539 100.93 204.087 100.93 204.087C100.93 204.087 100.97 203.724 101.253 203.119C101.575 202.433 102.18 201.465 103.35 200.376C105.609 198.319 107.746 197.593 107.746 197.593L121.419 201.667Z" fill="#1C3177"/>
<path d="M115.127 212.355C114.401 213.363 113.958 213.968 113.958 213.968C113.958 213.968 110.973 213.081 107.867 211.266C104.762 209.451 102.1 207.354 101.414 206.507C100.567 205.498 100.93 204.046 100.93 204.046C100.93 204.046 100.97 203.683 101.253 203.078C103.713 205.821 105.972 207.394 110.449 209.935C111.82 210.742 113.958 211.831 115.127 212.355Z" fill="#0E2566"/>
<path d="M188.857 200.295L151.952 217.961C151.952 217.961 148.725 218.768 146.063 216.55C145.539 216.146 145.055 215.622 144.611 214.936C143.32 212.96 142.998 211.226 143.078 209.895C143.159 208.443 143.643 207.515 143.643 207.515L182.686 190.091C182.686 190.091 184.702 189.97 186.477 191.059C187.163 191.503 187.808 192.108 188.292 192.995C188.857 194.003 189.099 195.092 189.179 196.141C189.421 198.4 188.857 200.295 188.857 200.295Z" fill="#4276D9"/>
<path d="M188.857 200.295L151.952 217.961C151.952 217.961 148.725 218.768 146.063 216.55L189.22 196.181C189.421 198.4 188.857 200.295 188.857 200.295Z" fill="#3669C9"/>
<path d="M186.517 191.099L143.078 209.895C143.159 208.443 143.643 207.515 143.643 207.515L182.686 190.091C182.726 190.131 184.743 190.01 186.517 191.099Z" fill="#5285E6"/>
<path d="M143.643 207.555C143.643 207.555 147.797 205.055 150.782 209.451C154.412 214.815 151.911 218.002 151.911 218.002C151.911 218.002 147.273 219.655 144.571 216.025C141.949 212.395 142.352 209.451 143.643 207.555Z" fill="#3669C9"/>
<path d="M161.874 213.162C161.833 213.162 161.753 213.162 161.712 213.121C161.309 213.041 161.027 212.597 161.148 212.194C161.148 212.153 161.793 209.249 159.938 206.426C158.123 203.724 155.985 204.006 155.985 204.006C155.582 204.087 155.178 203.764 155.098 203.361C155.017 202.957 155.34 202.554 155.743 202.473C155.864 202.473 158.889 202.03 161.228 205.539C163.487 208.927 162.721 212.395 162.68 212.516C162.559 212.92 162.237 213.162 161.874 213.162Z" fill="#3669C9"/>
<path d="M172.441 207.676C172.401 207.676 172.32 207.676 172.28 207.636C171.876 207.555 171.594 207.112 171.715 206.708C171.715 206.668 172.32 203.925 170.586 201.263C168.932 198.763 166.996 199.005 166.915 199.005C166.512 199.045 166.109 198.763 166.028 198.359C165.947 197.956 166.27 197.553 166.673 197.472C166.794 197.472 169.618 197.028 171.876 200.416C174.014 203.643 173.248 206.95 173.248 207.071C173.086 207.434 172.764 207.676 172.441 207.676Z" fill="#3669C9"/>
<path d="M182.484 203.119C182.444 203.119 182.363 203.119 182.323 203.078C181.919 202.998 181.637 202.554 181.758 202.151C181.758 202.11 182.363 199.368 180.629 196.706C178.975 194.165 177.079 194.447 177.039 194.447C176.636 194.528 176.232 194.245 176.152 193.802C176.071 193.398 176.353 192.995 176.797 192.914C176.918 192.914 179.741 192.511 181.919 195.859C184.017 199.085 183.291 202.352 183.25 202.514C183.17 202.877 182.847 203.119 182.484 203.119Z" fill="#3669C9"/>
<path d="M166.835 156.332C163.931 161.858 159.413 165.931 156.388 166.012C154.13 166.052 153.404 165.205 153.767 162.745C153.888 161.938 154.13 160.97 154.452 159.76C155.824 154.961 158.284 150.524 159.696 148.225C161.793 144.877 165.383 145.442 167.198 146.854C167.48 147.055 167.722 147.297 167.924 147.539C169.456 149.233 169.335 151.492 166.835 156.332Z" fill="#1C3177"/>
<path d="M166.835 156.332C163.931 161.858 159.413 165.931 156.388 166.012C154.13 166.052 153.404 165.205 153.767 162.745C154.291 163.39 155.178 163.915 156.59 163.632C159.575 163.027 164.939 157.461 166.915 152.258C167.722 150.121 167.964 148.588 167.964 147.539C169.456 149.233 169.335 151.492 166.835 156.332Z" fill="#0E2566"/>
<path d="M165.786 149.112C165.907 150.887 164.294 153.67 161.874 155.606C159.454 157.542 157.921 156.13 158.889 152.944C159.897 149.758 162.237 146.894 163.85 146.894C164.899 146.894 165.665 147.66 165.786 149.112Z" fill="#0E2566"/>
<path d="M163.568 152.097C163.285 152.621 162.922 153.025 162.559 153.347C161.39 154.396 160.059 154.638 160.059 154.638C160.059 154.638 150.217 152.057 138.722 139.392C132.35 132.374 129.244 126.687 127.711 122.976C126.461 119.992 126.3 118.298 126.3 118.298C126.3 118.298 126.38 117.209 127.51 116.12C128.195 115.434 129.325 114.708 131.059 114.224C132.027 113.942 132.914 113.861 133.64 113.901C136.423 114.022 137.512 115.837 137.512 115.837C137.512 115.837 137.875 116.926 138.561 118.62C140.295 122.936 144.208 131.245 150.056 136.73C158.284 144.353 163.769 147.257 163.769 147.257C163.769 147.257 164.052 148.064 164.132 149.153C164.253 150.08 164.132 151.129 163.568 152.097Z" fill="#4276D9"/>
<path d="M162.559 153.347C161.39 154.396 160.059 154.638 160.059 154.638C160.059 154.638 150.217 152.057 138.722 139.392C127.227 126.727 126.34 118.298 126.34 118.298C126.34 118.298 126.421 117.209 127.55 116.12C129.526 121.161 135.133 133.423 146.265 142.256C154.291 148.588 159.534 151.774 162.559 153.347Z" fill="#3669C9"/>
<path d="M164.173 149.153C160.502 147.338 153.121 143.183 146.628 136.528C139.126 128.784 134.891 117.491 133.681 113.901C136.464 114.022 137.553 115.837 137.553 115.837C137.553 115.837 141.909 129.067 150.137 136.73C158.365 144.353 163.85 147.257 163.85 147.257C163.85 147.257 164.132 148.064 164.173 149.153Z" fill="#5285E6"/>
<path d="M138.601 118.62C137.996 119.024 137.351 119.467 136.665 119.871C132.713 122.21 129.607 122.855 127.711 122.976C126.461 119.992 126.3 118.298 126.3 118.298C126.3 118.298 126.38 117.209 127.51 116.12C128.195 115.434 129.325 114.708 131.059 114.224C132.027 113.942 132.914 113.861 133.64 113.901C136.423 114.022 137.512 115.837 137.512 115.837C137.512 115.837 137.916 116.886 138.601 118.62Z" fill="#3669C9"/>
<path d="M131.503 126.929C130.494 126.929 129.809 126.768 129.768 126.768C129.486 126.687 129.325 126.405 129.365 126.163C129.446 125.88 129.688 125.719 129.97 125.759C130.01 125.759 132.955 126.405 135.657 124.791C138.319 123.178 138.601 121.444 138.601 121.444C138.642 121.161 138.884 120.96 139.166 121C139.448 121.04 139.65 121.282 139.61 121.565C139.61 121.645 139.287 123.783 136.181 125.679C134.528 126.687 132.753 126.929 131.503 126.929Z" fill="#3669C9"/>
<path d="M137.916 137.496C137.391 137.496 137.069 137.416 137.028 137.416C136.746 137.335 136.585 137.053 136.665 136.77C136.746 136.488 137.028 136.327 137.311 136.407C137.391 136.448 139.287 136.891 141.828 134.834C144.167 132.939 144.208 131.245 144.208 131.164C144.208 130.882 144.45 130.64 144.732 130.64C145.014 130.64 145.256 130.882 145.256 131.164C145.256 131.245 145.216 133.423 142.473 135.641C140.578 137.214 138.884 137.496 137.916 137.496Z" fill="#3669C9"/>
<path d="M143.925 144.272C143.603 144.272 143.401 144.03 143.401 143.748C143.401 143.466 143.643 143.224 143.925 143.224C144.006 143.224 146.426 143.224 148.201 141.449C149.935 139.715 149.693 137.779 149.693 137.698C149.653 137.416 149.854 137.174 150.137 137.133C150.419 137.093 150.661 137.295 150.701 137.577C150.701 137.698 151.024 140.118 148.927 142.215C146.91 144.232 144.248 144.272 143.925 144.272Z" fill="#3669C9"/>
<path d="M151.669 150.242C151.589 150.242 151.548 150.242 151.508 150.242C151.226 150.201 151.024 149.959 151.024 149.677C151.064 149.395 151.306 149.193 151.589 149.193C151.669 149.193 153.404 149.274 155.098 147.176C156.388 145.603 155.945 143.183 155.945 143.143C155.904 142.861 156.066 142.578 156.348 142.538C156.63 142.498 156.913 142.659 156.953 142.941C156.993 143.062 157.477 145.845 155.904 147.822C154.089 150.08 152.194 150.242 151.669 150.242Z" fill="#3669C9"/>
<path d="M116.7 176.337C114.603 176.983 107.908 177.265 102.503 177.184C97.5823 177.104 95.364 176.297 97.0984 174.442C97.2597 174.24 97.5017 174.038 97.784 173.837C100.648 171.538 107.545 169.602 110.812 169.36C113.877 169.118 116.579 168.755 117.144 169.884C117.507 170.61 117.91 172.022 117.991 173.353C118.072 174.724 117.789 176.015 116.7 176.337Z" fill="#1C3177"/>
<path d="M116.7 176.337C114.603 176.983 107.908 177.265 102.503 177.184C97.5823 177.104 95.364 176.297 97.0984 174.442C98.51 174.845 101.414 175.369 106.778 175.208C113.232 175.006 116.257 174.24 117.951 173.353C118.072 174.724 117.789 176.015 116.7 176.337Z" fill="#0E2566"/>
<path d="M108.956 169.682C105.689 170.086 102.624 172.223 106.657 172.465C111.457 172.748 117.225 170.57 116.741 169.844C116.257 169.077 112.425 169.239 108.956 169.682Z" fill="#0E2566"/>
<path d="M116.337 169.481C116.337 169.481 115.894 170.489 113.675 171.296C113.514 171.376 113.312 171.417 113.07 171.497C111.618 171.941 110.005 171.86 108.795 171.659C107.787 171.497 107.101 171.296 107.101 171.296C107.101 171.296 102.382 161.777 100.769 153.186C99.1554 144.595 98.0664 137.617 100.204 128.663C100.688 126.727 101.091 125.154 101.495 123.864C102.906 119.225 103.834 118.378 103.834 118.378C103.834 118.378 104.641 118.136 105.81 117.975C107.464 117.733 109.844 117.733 111.497 118.943C111.941 119.266 112.304 119.588 112.667 119.911C114.522 121.645 115.006 123.299 115.006 123.299C115.006 123.299 113.716 125.114 112.425 128.583C111.175 131.971 109.884 136.932 109.844 143.345C109.723 156.292 116.337 169.481 116.337 169.481Z" fill="#4276D9"/>
<path d="M116.337 169.481C116.337 169.481 115.894 170.489 113.675 171.296C111.538 167.101 108.513 159.639 106.859 148.427C104.641 133.06 110.489 123.057 112.667 119.951C114.522 121.686 115.006 123.339 115.006 123.339C115.006 123.339 109.965 130.438 109.844 143.385C109.723 156.332 116.337 169.481 116.337 169.481Z" fill="#3669C9"/>
<path d="M108.835 171.659C107.827 171.497 107.141 171.296 107.141 171.296C107.141 171.296 102.422 161.777 100.809 153.186C99.1957 144.595 98.1067 137.617 100.244 128.663C102.382 119.75 103.874 118.378 103.874 118.378C103.874 118.378 104.681 118.136 105.851 117.975C104.318 121.161 100.728 129.954 101.454 141.53C102.18 153.226 106.94 166.698 108.835 171.659Z" fill="#5285E6"/>
<path d="M110.812 132.455C110.65 132.455 110.489 132.374 110.408 132.253C110.408 132.253 109.198 130.64 106.173 129.873C103.068 129.107 100.97 129.631 100.97 129.631C100.688 129.712 100.406 129.551 100.325 129.268C100.244 128.986 100.406 128.704 100.688 128.623C100.769 128.583 103.027 128.018 106.415 128.865C109.844 129.712 111.175 131.567 111.255 131.648C111.417 131.89 111.376 132.213 111.134 132.374C111.013 132.414 110.892 132.455 110.812 132.455Z" fill="#3669C9"/>
<path d="M109.36 143.103C109.239 143.103 109.077 143.062 108.997 142.941C108.997 142.941 107.625 141.61 104.721 141.368C101.777 141.167 99.962 142.014 99.962 142.014C99.72 142.135 99.3974 142.014 99.2764 141.772C99.1554 141.53 99.236 141.207 99.5184 141.086C99.599 141.046 101.575 140.078 104.842 140.32C108.15 140.562 109.723 142.135 109.803 142.175C110.005 142.377 110.005 142.699 109.803 142.901C109.602 143.062 109.481 143.103 109.36 143.103Z" fill="#3669C9"/>
<path d="M104.842 153.549C102.624 153.549 101.172 152.984 101.132 152.944C100.849 152.823 100.728 152.541 100.849 152.258C100.97 151.976 101.253 151.855 101.535 151.976C101.535 151.976 103.148 152.621 105.568 152.46C107.988 152.339 109.803 151.371 109.803 151.371C110.045 151.25 110.368 151.331 110.489 151.573C110.61 151.815 110.529 152.137 110.287 152.258C110.207 152.299 108.271 153.307 105.609 153.468C105.367 153.549 105.084 153.549 104.842 153.549Z" fill="#3669C9"/>
<path d="M107.02 163.592C105.044 163.592 103.915 162.987 103.874 162.947C103.632 162.826 103.511 162.503 103.673 162.261C103.794 162.019 104.116 161.938 104.358 162.059C104.399 162.059 105.851 162.826 108.432 162.463C110.973 162.1 111.941 161.051 111.941 161.051C112.143 160.849 112.465 160.809 112.667 161.011C112.869 161.212 112.909 161.535 112.707 161.737C112.667 161.777 111.538 163.068 108.553 163.471C108.029 163.592 107.504 163.592 107.02 163.592Z" fill="#3669C9"/>
<path d="M115.047 123.299C115.047 123.299 113.756 125.114 112.465 128.583C111.901 128.26 111.296 127.937 110.65 127.574C106.778 125.396 103.511 124.348 101.535 123.864C102.947 119.225 103.874 118.378 103.874 118.378C103.874 118.378 104.681 118.136 105.851 117.975C107.504 117.733 109.884 117.733 111.538 118.943C111.981 119.266 112.344 119.588 112.707 119.911C114.563 121.686 115.047 123.299 115.047 123.299Z" fill="#3669C9"/>
<path d="M104.681 80.5053C104.681 80.5053 100.688 90.7096 98.994 97.4453C97.3 104.181 93.549 118.54 93.549 118.54C93.549 118.54 92.46 119.508 90.9273 119.951C90.282 120.113 89.5963 120.234 88.8703 120.113C86.41 119.709 84.8773 117.773 84.8773 117.773C84.8773 117.773 87.983 108.981 90.3223 100.188C92.6617 91.355 97.3 75.8266 97.3 75.8266C100.164 75.504 101.938 75.9476 103.027 76.6333C105.205 78.045 104.681 80.5053 104.681 80.5053Z" fill="#4276D9"/>
<path d="M104.681 80.5053C104.681 80.5053 100.688 90.7096 98.994 97.4453C97.3 104.181 93.549 118.54 93.549 118.54C93.549 118.54 92.46 119.508 90.9274 119.951C91.8147 116.604 93.3474 110.876 95.0817 103.939C97.542 94.2186 101.898 80.2633 102.987 76.6736C105.205 78.0449 104.681 80.5053 104.681 80.5053Z" fill="#3669C9"/>
<path d="M94.396 112.974C94.1944 112.974 93.9927 112.853 93.912 112.651C93.912 112.651 93.186 110.796 91.613 110.433C89.5964 109.949 88.467 110.433 88.467 110.433C88.225 110.554 87.9024 110.433 87.7814 110.191C87.6604 109.949 87.7814 109.626 88.0234 109.505C88.0637 109.465 89.435 108.819 91.855 109.424C93.9524 109.908 94.8397 112.207 94.88 112.288C95.001 112.57 94.8397 112.853 94.5977 112.974C94.517 112.974 94.4767 112.974 94.396 112.974Z" fill="#3669C9"/>
<path d="M97.5017 101.479C97.3 101.479 97.1387 101.358 97.0177 101.196C97.0177 101.196 96.09 99.341 94.5977 98.978C92.6617 98.5343 91.613 98.978 91.613 98.978C91.371 99.099 91.0484 98.978 90.9274 98.736C90.8064 98.494 90.9274 98.1713 91.1694 98.0503C91.2097 98.01 92.5407 97.405 94.88 97.9696C96.8563 98.4536 97.9453 100.632 97.9857 100.712C98.1067 100.954 97.9857 101.277 97.7437 101.398C97.663 101.438 97.5823 101.479 97.5017 101.479Z" fill="#3669C9"/>
<path d="M100.607 90.145C100.406 90.145 100.244 90.024 100.164 89.8627C100.164 89.8627 99.357 88.2493 97.8243 87.846C95.8883 87.362 94.7993 87.846 94.7993 87.846C94.5573 87.967 94.2346 87.846 94.1136 87.604C93.9926 87.362 94.1136 87.0393 94.3556 86.9183C94.396 86.878 95.727 86.273 98.0663 86.8377C100.043 87.3217 101.011 89.298 101.051 89.3787C101.172 89.6207 101.051 89.9433 100.809 90.0643C100.769 90.1047 100.688 90.145 100.607 90.145Z" fill="#3669C9"/>
<path d="M93.549 118.499L92.2583 126.768C92.2583 126.768 91.492 127.05 90.3626 127.292C89.5963 127.494 88.6283 127.655 87.7006 127.695C84.958 127.857 83.7479 127.453 83.7479 127.453C83.7479 127.453 83.2639 126.405 83.7479 122.855C84.1916 119.306 84.9983 117.37 84.9983 117.37C84.9983 117.37 86.289 116.644 88.9913 116.886C89.9996 116.967 90.8063 117.168 91.4516 117.37C92.9036 117.854 93.4683 118.419 93.549 118.499Z" fill="#1C3177"/>
<path d="M93.549 118.499L92.2583 126.768C92.2583 126.768 91.492 127.05 90.3627 127.292L91.4517 117.37C92.9037 117.854 93.4683 118.419 93.549 118.499Z" fill="#0E2566"/>
<path d="M91.5323 121.04L94.2347 124.307C94.2347 124.307 95.243 125.961 96.6143 125.074C97.542 124.428 96.4933 123.057 96.1707 122.492C96.09 122.331 94.7187 120.476 93.8313 119.266C93.2263 118.459 92.0164 118.499 91.492 119.346C91.1694 119.709 91.0887 120.274 91.5323 121.04Z" fill="#1C3177"/>
<path d="M83.7883 127.05C83.7883 127.05 84.1917 130.519 84.7563 132.132C85.321 133.786 86.2083 135.56 86.7327 135.802C87.257 136.044 87.7007 135.52 87.7813 134.713C87.862 133.907 87.2167 132.414 86.9343 130.519C86.652 128.623 86.41 127.171 86.41 127.171C86.41 127.171 84.837 125.638 83.7883 127.05Z" fill="#1C3177"/>
<path d="M86.4906 127.09C86.4906 127.09 87.2569 130.761 87.9829 132.455C88.7089 134.149 89.7979 136.004 90.3223 136.206C90.8466 136.407 91.2499 135.843 91.2499 134.955C91.2499 134.068 90.4433 132.576 89.9593 130.559C89.4753 128.542 89.5156 126.889 89.5156 126.889C89.5156 126.889 87.3779 125.477 86.4906 127.09Z" fill="#1C3177"/>
<path d="M89.5156 126.526C89.5156 126.526 90.282 129.954 91.008 131.527C91.734 133.1 92.823 134.834 93.3473 135.036C93.8716 135.238 94.275 134.673 94.275 133.866C94.275 133.06 93.4683 131.648 92.9843 129.752C92.5003 127.897 92.1373 126.485 92.1373 126.485C92.1373 126.485 90.403 125.033 89.5156 126.526Z" fill="#1C3177"/>
<path d="M142.836 104.1C142.836 104.1 142.514 105.351 141.667 107.287C140.941 108.9 139.852 111.038 138.238 113.256C136.988 114.99 133.721 117.894 129.163 120.113C125.695 121.807 121.5 123.097 116.862 123.178C108.19 123.299 103.431 121.202 101.011 119.467C99.3571 118.257 98.7521 117.249 98.7521 117.249L111.699 113.377L142.836 104.1Z" fill="#6696F0"/>
<path d="M129.163 120.113C125.695 121.807 121.5 123.097 116.862 123.178C108.19 123.299 103.431 121.202 101.011 119.467C99.3571 118.257 98.7521 117.249 98.7521 117.249L111.699 113.377C113.716 114.829 121.137 113.861 129.849 115.878C130.535 116.039 130.212 118.741 129.163 120.113Z" fill="#4276D9"/>
<path d="M142.836 104.1C142.836 104.1 142.514 105.351 141.667 107.287C140.82 108.255 139.852 109.303 138.682 110.433C134.084 114.91 129.809 117.531 129.809 117.531C129.809 117.531 124.848 119.266 116.62 119.709C110.57 120.032 103.995 119.629 100.93 119.427C99.2764 118.217 98.6714 117.209 98.6714 117.209L142.836 104.1Z" fill="#1C3177"/>
<path d="M130.051 115.676L129.526 115.797C127.711 116.281 121.258 117.814 112.949 118.257C109.521 118.419 106.738 118.378 104.6 118.177C100.607 117.854 98.7519 117.209 98.7519 117.209L95.5253 73.7696L98.3486 73.2453L115.047 70.1799C115.047 70.1799 118.152 79.2146 122.468 91.8389C126.743 104.423 130.051 115.676 130.051 115.676Z" fill="#4276D9"/>
<path d="M142.836 104.1C142.836 104.1 141.425 105.835 138.561 108.779L138.521 108.819C135.617 111.804 130.051 115.676 130.051 115.676H130.01C129.042 112.248 127.147 105.875 124.969 99.341C121.742 89.7819 115.047 70.18 115.047 70.18L119.241 64.372L121.5 61.226C121.5 61.226 127.469 66.913 132.995 78.166C138.521 89.419 142.836 104.1 142.836 104.1Z" fill="#5285E6"/>
<path d="M121.5 61.226L115.047 70.1799L95.485 73.7696L102.624 66.1466L115.127 62.8796L121.5 61.226Z" fill="#4276D9"/>
<path d="M104.6 118.217C100.607 117.894 98.7519 117.249 98.7519 117.249L95.5253 73.81L98.3486 73.2856L104.6 118.217Z" fill="#3669C9"/>
<path d="M115.127 62.8796C114.482 64.13 113.595 65.5416 112.344 66.913C109.279 70.301 105.891 71.753 105.891 71.753L95.485 73.7696L102.584 66.1466L115.127 62.8796Z" fill="#3669C9"/>
<path d="M142.836 104.1C142.836 104.1 141.425 105.835 138.561 108.779C136.827 102.769 134.366 95.0656 131.099 86.9586C126.622 75.746 122.145 68.4456 119.241 64.372L121.5 61.226C121.5 61.226 127.469 66.913 132.995 78.166C138.521 89.419 142.836 104.1 142.836 104.1Z" fill="#6696F0"/>
<path d="M122.952 108.779C123.033 109.344 122.629 109.828 122.065 109.828C121.5 109.828 121.016 109.384 120.935 108.779C120.855 108.214 121.258 107.73 121.823 107.73C122.387 107.73 122.871 108.214 122.952 108.779Z" fill="#3669C9"/>
<path d="M117.346 84.4983C117.346 85.0629 116.942 85.5469 116.378 85.5469C115.813 85.5469 115.369 85.0629 115.329 84.4983C115.329 83.9336 115.732 83.4496 116.297 83.4496C116.862 83.4496 117.305 83.8933 117.346 84.4983Z" fill="#3669C9"/>
<path d="M99.6796 87.3619C99.6796 87.8862 99.3167 88.2895 98.8326 88.2895C98.3486 88.2895 97.9453 87.8862 97.9453 87.3619C97.9453 86.8375 98.3083 86.4342 98.7923 86.4342C99.2763 86.4342 99.6796 86.8375 99.6796 87.3619Z" fill="#4276D9"/>
<path d="M102.543 110.634C102.543 111.159 102.18 111.562 101.696 111.562C101.212 111.562 100.809 111.159 100.809 110.634C100.809 110.11 101.172 109.707 101.656 109.707C102.1 109.707 102.503 110.11 102.543 110.634Z" fill="#4276D9"/>
<path d="M131.987 112.006C132.027 112.611 131.624 113.095 131.059 113.095C130.494 113.095 130.01 112.611 129.97 112.006C129.93 111.401 130.333 110.917 130.898 110.917C131.462 110.876 131.946 111.401 131.987 112.006Z" fill="#4276D9"/>
<path d="M141.747 103.294C141.788 103.737 141.465 104.141 141.021 104.141C140.618 104.141 140.215 103.778 140.215 103.294C140.174 102.85 140.497 102.447 140.941 102.447C141.344 102.487 141.747 102.85 141.747 103.294Z" fill="#4276D9"/>
<path d="M128.962 74.3343C129.526 78.0046 127.671 80.949 124.767 80.949C121.863 80.949 119.04 77.9643 118.475 74.3343C117.91 70.664 119.766 67.7196 122.67 67.7196C125.574 67.6793 128.397 70.664 128.962 74.3343Z" fill="#3669C9"/>
<path d="M128.679 72.9227C129.567 75.7864 128.679 78.408 126.743 78.7307C124.807 79.0534 122.508 76.9964 121.661 74.0924C120.774 71.2287 121.661 68.607 123.597 68.2844C125.533 67.9617 127.792 70.059 128.679 72.9227Z" fill="#5285E6"/>
<path d="M126.945 73.2856C127.308 74.4553 126.945 75.5443 126.138 75.6653C125.332 75.7863 124.404 74.9393 124.041 73.7696C123.678 72.5999 124.041 71.5109 124.848 71.3899C125.654 71.2286 126.582 72.0756 126.945 73.2856Z" fill="#3669C9"/>
<path d="M139.085 79.2146C138.601 79.2146 138.037 79.1339 137.472 78.9323C135.778 78.2869 135.294 77.8433 133.479 76.1089C133.076 75.7056 132.592 75.2619 132.027 74.7376C129.405 72.2773 126.703 74.0923 126.582 74.1729C126.219 74.4149 125.735 74.3343 125.493 73.9713C125.251 73.6083 125.332 73.1243 125.695 72.8823C127.026 71.9546 130.293 70.9463 133.076 73.6083C133.64 74.1326 134.124 74.6166 134.528 74.9796C136.262 76.6736 136.585 76.956 137.996 77.4803C140.013 78.2063 141.102 76.7543 141.223 76.5929C141.465 76.2299 141.949 76.1493 142.312 76.3913C142.675 76.6333 142.756 77.1173 142.514 77.4803C142.07 78.2063 140.82 79.2146 139.085 79.2146Z" fill="#1C3177"/>
<path d="M121.056 106.601L120.855 106.641L115.49 107.246L111.054 107.73L110.045 107.851L106.617 108.214L106.375 108.255L105.73 108.295L101.938 108.739L101.414 104.544L99.5183 89.177L103.027 88.6123L106.415 88.088H106.456L109.803 87.5636L116.257 86.5553L117.305 91.0726L117.426 91.476L118.435 95.832L118.636 96.558L119.725 101.116L121.016 106.44L121.056 106.601Z" fill="#0E2566"/>
<path d="M121.056 106.601L120.855 106.641L115.49 107.246L111.054 107.73L110.045 107.851L106.617 108.214L106.375 108.255L105.73 108.295L103.834 93.17L107.383 92.6456L110.731 92.1213L110.771 92.081L114.159 91.5566L117.305 91.0726L117.426 91.476L118.435 95.832L118.636 96.558L119.725 101.116L121.016 106.44L121.056 106.601Z" fill="#1C3177"/>
<path d="M115.208 104.665C115.208 105.633 115.652 106.52 116.337 107.085L112.546 107.488L111.659 107.569L108.714 107.892L108.634 106.319L108.513 103.455L111.134 103.374C111.215 102.971 111.296 102.568 111.457 102.164L108.956 100.511L111.659 96.437L114.401 98.494C114.724 98.2923 115.047 98.131 115.369 97.9696L114.563 94.4606L116.66 93.9363L117.91 93.6136L118.798 97.3243L118.959 97.9696L119.887 101.882C119.443 101.6 118.878 101.479 118.314 101.479C116.66 101.479 115.208 102.931 115.208 104.665Z" fill="#D2E9FF"/>
<path d="M107.222 93.8556L103.874 94.3396L103.027 88.6122L106.415 88.0879L107.222 93.8556Z" fill="#D2E9FF"/>
<path d="M110.328 91.5163L106.94 91.9599L106.415 88.0879L109.763 87.5636L110.328 91.5163Z" fill="#AED8FC"/>
<path d="M106.375 108.255L101.938 108.739L101.414 104.544L105.851 104.02L106.375 108.255Z" fill="#AED8FC"/>
<path d="M115.208 104.665C115.208 105.633 115.652 106.52 116.337 107.085L112.546 107.488L111.659 107.569L108.714 107.892L108.674 107.125L113.474 106.682C113.474 106.682 112.707 104.1 114.119 101.68C115.531 99.2602 117.83 99.2602 117.83 99.2602L116.7 93.8959L117.951 93.5732L118.838 97.2839L118.999 97.9292L119.927 101.842C119.483 101.559 118.919 101.438 118.354 101.438C116.66 101.479 115.208 102.931 115.208 104.665Z" fill="#AED8FC"/>
<path d="M92.1373 96.0739C89.4753 96.0739 87.9426 94.4202 87.499 93.4119C87.2973 93.0086 87.499 92.5649 87.862 92.3632C88.2653 92.1616 88.709 92.3632 88.9106 92.7262C88.951 92.8069 90.04 94.9042 92.9843 94.4202C94.6783 94.1379 95.243 93.3716 95.8883 92.5246C96.453 91.7582 97.0983 90.8709 98.51 90.4676C100.527 89.8626 102.543 91.3549 102.624 91.4356C102.947 91.6776 103.027 92.2019 102.785 92.5246C102.543 92.8472 102.059 92.9279 101.696 92.6859C101.656 92.6859 100.204 91.5969 98.9536 91.9599C98.0663 92.2422 97.663 92.7666 97.1386 93.4522C96.453 94.4202 95.5656 95.5899 93.2263 95.9932C92.8633 96.0739 92.5003 96.0739 92.1373 96.0739Z" fill="#AED8FC"/>
<path d="M95.0414 100.43C92.6617 101.6 90.5644 100.833 89.677 100.148C89.3544 99.8652 89.2737 99.3812 89.556 99.0585C89.8384 98.7359 90.3224 98.6552 90.645 98.9375C90.7257 98.9779 92.6214 100.39 95.0817 98.6149C96.4934 97.6065 96.6547 96.6789 96.816 95.5898C96.9774 94.6218 97.179 93.5732 98.2277 92.5648C99.7604 91.1128 102.221 91.5565 102.342 91.5969C102.745 91.6775 103.027 92.0809 102.947 92.4842C102.866 92.8875 102.463 93.1699 102.059 93.0892C102.019 93.0892 100.244 92.7665 99.2764 93.6942C98.5907 94.3395 98.4697 95.0252 98.3487 95.8722C98.147 97.0418 97.905 98.4938 95.969 99.9055C95.6867 100.067 95.364 100.269 95.0414 100.43Z" fill="#FEC272"/>
<path d="M114.643 52.5544C114.643 52.5544 112.627 56.5071 108.876 60.2984C107.061 62.1537 104.842 63.9284 102.221 65.2191C98.631 66.9937 95.2833 68.2844 92.6617 69.1314C89.3543 70.2204 87.2167 70.6641 87.2167 70.6641C87.2167 70.6641 80.118 58.7657 79.0693 49.7311C78.3433 43.3181 80.5213 38.8007 84.353 35.7757C85.321 35.0094 86.41 34.3237 87.5797 33.7591C88.346 33.3961 89.1123 33.0734 89.919 32.7507C97.0177 30.1694 103.632 34.9691 106.98 39.0831C110.368 43.2374 114.643 52.5544 114.643 52.5544Z" fill="#4276D9"/>
<path d="M92.6617 69.1313C89.3543 70.2203 87.2167 70.664 87.2167 70.664C87.2167 70.664 80.118 58.7656 79.0693 49.731C78.3433 43.318 80.5213 38.8006 84.353 35.7756C83.6673 39.2846 83.385 43.8826 84.837 48.7226C86.652 54.571 90.0803 63.0006 92.6617 69.1313Z" fill="#3669C9"/>
<path d="M96.1489 60.1252C99.1244 58.9268 100.302 54.89 98.7789 51.1087C97.2559 47.3274 93.6093 45.2336 90.6338 46.4319C87.6584 47.6303 86.4809 51.6671 88.0039 55.4484C89.5268 59.2297 93.1735 61.3236 96.1489 60.1252Z" fill="#5285E6"/>
<path d="M95.1528 59.4263C97.7356 58.386 98.75 54.8627 97.4184 51.5566C96.0869 48.2506 92.9137 46.4138 90.3308 47.4541C87.748 48.4943 86.7336 52.0177 88.0651 55.3238C89.3967 58.6298 92.5699 60.4666 95.1528 59.4263Z" fill="#1C3177"/>
<path d="M94.4084 58.3086C96.5573 57.4431 97.4088 54.5304 96.3103 51.8029C95.2118 49.0755 92.5792 47.566 90.4303 48.4315C88.2814 49.297 87.4298 52.2097 88.5284 54.9372C89.6269 57.6647 92.2594 59.1741 94.4084 58.3086Z" fill="#0E2566"/>
<path d="M84.6826 64.1395C86.2323 63.5153 86.4767 60.4968 85.2283 57.3974C83.98 54.2979 81.7118 52.2914 80.1621 52.9155C78.6124 53.5397 78.368 56.5582 79.6164 59.6576C80.8647 62.757 83.1329 64.7636 84.6826 64.1395Z" fill="#4276D9"/>
<path d="M83.9475 64.1658C85.3939 63.5832 85.6287 60.7827 84.4719 57.9105C83.3151 55.0384 81.2048 53.1824 79.7585 53.7649C78.3121 54.3475 78.0773 57.148 79.2341 60.0201C80.3908 62.8923 82.5011 64.7483 83.9475 64.1658Z" fill="#1C3177"/>
<path d="M83.2996 63.206C84.4567 62.74 84.6391 60.4861 83.707 58.1719C82.775 55.8577 81.0814 54.3594 79.9242 54.8255C78.7671 55.2915 78.5847 57.5454 79.5168 59.8596C80.4489 62.1738 82.1425 63.6721 83.2996 63.206Z" fill="#0E2566"/>
<path d="M104.036 25.2084L101.777 34.848L98.3083 34.485L92.702 33.9204L89.8787 33.638L96.1707 21.9817C96.1707 21.9817 96.816 21.6994 97.7437 21.4977C98.7117 21.2557 99.9217 21.175 100.97 21.5784C101.575 21.8204 102.1 22.264 102.503 22.7077C103.511 23.837 104.036 25.2084 104.036 25.2084Z" fill="#4276D9"/>
<path d="M104.036 25.2084L101.777 34.848L98.3083 34.485L102.503 22.748C103.511 23.837 104.036 25.2084 104.036 25.2084Z" fill="#3669C9"/>
<path d="M97.7437 21.4977L92.702 33.9203L89.8787 33.638L96.1707 21.9817C96.1707 21.9817 96.816 21.6993 97.7437 21.4977Z" fill="#5285E6"/>
<path d="M102.745 27.9914C102.503 27.9914 102.301 27.83 102.261 27.6284C102.221 27.5477 101.656 25.8134 98.994 25.0874C96.8967 24.4824 95.6464 25.168 95.6464 25.2084C95.4044 25.3697 95.0817 25.2487 94.9204 25.0067C94.7591 24.7647 94.8801 24.442 95.1221 24.2807C95.2027 24.2404 96.7757 23.353 99.2764 24.079C102.503 25.0067 103.189 27.225 103.229 27.346C103.31 27.6284 103.148 27.9107 102.866 27.9914C102.866 27.9914 102.785 27.9914 102.745 27.9914Z" fill="#3669C9"/>
<path d="M101.858 32.0247C101.616 32.0247 101.414 31.8633 101.333 31.6213C101.333 31.5407 100.849 29.6047 97.905 28.7173C94.9606 27.83 93.7506 28.919 93.67 28.9997C93.4683 29.2013 93.1456 29.2013 92.944 28.9997C92.7423 28.798 92.7423 28.4753 92.944 28.2737C93.0246 28.193 94.5976 26.7007 98.1873 27.7493C101.737 28.8383 102.301 31.2987 102.301 31.4197C102.342 31.702 102.18 31.9843 101.898 32.0247C101.938 32.0247 101.898 32.0247 101.858 32.0247Z" fill="#3669C9"/>
<path d="M114.643 52.5544C114.643 52.5544 112.627 56.507 108.876 60.2984C105.528 53.361 99.6393 41.9064 95.5253 37.873C92.7826 35.1707 89.9189 34.122 87.5796 33.7994C88.3459 33.4364 89.1123 33.1137 89.9189 32.791C97.0176 30.2097 103.632 35.0094 106.98 39.1234C110.368 43.2374 114.643 52.5544 114.643 52.5544Z" fill="#5285E6"/>
<path d="M117.668 55.5391C117.668 55.5391 113.796 61.4681 107.424 66.0257C106.577 66.6307 105.649 67.2357 104.721 67.7601C101.333 69.7364 97.7437 71.2287 94.7591 72.3177C90.7661 73.7697 87.8621 74.4554 87.8621 74.4554L85.8051 68.2844C85.8051 68.2844 89.1527 66.9534 93.4684 64.9367C93.9524 64.6947 94.4364 64.4527 94.9607 64.2107C99.962 61.7907 101.858 60.2581 101.858 60.2581L101.333 54.7324C101.333 54.7324 102.261 54.1274 103.552 53.2401C104.963 52.2721 106.778 50.9814 108.069 49.8924C110.529 47.8354 111.417 46.1011 111.417 46.1011C111.417 46.1011 113.554 48.7227 115.168 51.2637C116.781 53.7644 117.668 55.5391 117.668 55.5391Z" fill="#4276D9"/>
<path d="M117.668 55.539C117.668 55.539 113.796 61.468 107.424 66.0257L103.511 53.2804C104.923 52.3124 106.738 51.0217 108.029 49.9327C110.489 47.8757 111.376 46.1414 111.376 46.1414C111.376 46.1414 113.514 48.763 115.127 51.304C116.781 53.7644 117.668 55.539 117.668 55.539Z" fill="#5285E6"/>
<path d="M94.7993 72.3178C90.8063 73.7698 87.9023 74.4554 87.9023 74.4554L85.8453 68.2844C85.8453 68.2844 89.193 66.9534 93.5087 64.9368L94.7993 72.3178Z" fill="#3669C9"/>
<path d="M111.739 46.0206C112.304 49.5296 110.489 52.3529 107.746 52.3529C105.004 52.3529 102.301 49.5296 101.737 46.0206C101.172 42.5116 102.987 39.6882 105.73 39.6882C108.472 39.6882 111.175 42.5116 111.739 46.0206Z" fill="#3669C9"/>
<path d="M111.739 44.7297C112.667 47.8354 111.739 50.6587 109.642 51.0217C107.545 51.3847 105.044 49.126 104.116 45.98C103.189 42.834 104.116 40.051 106.214 39.688C108.311 39.3654 110.771 41.624 111.739 44.7297Z" fill="#5285E6"/>
<path d="M110.247 44.4071C110.691 45.8187 110.247 47.0691 109.319 47.2304C108.392 47.3917 107.262 46.3834 106.819 44.9717C106.375 43.5601 106.819 42.3097 107.746 42.1484C108.714 42.0274 109.844 43.0357 110.247 44.4071Z" fill="#4276D9"/>
<path d="M88.0233 91.234C87.862 91.1534 87.7813 91.0324 87.741 90.871L87.378 89.0964C87.3376 88.814 87.499 88.5317 87.7813 88.4914C88.0636 88.451 88.346 88.6124 88.3863 88.8947L88.7493 90.6694C88.7896 90.9517 88.6283 91.234 88.346 91.2744C88.225 91.2744 88.104 91.2744 88.0233 91.234Z" fill="#FEC272"/>
<path d="M86.3293 92.2424C86.289 92.2424 86.289 92.2424 86.2487 92.202L83.6673 90.992C83.4253 90.871 83.3043 90.5887 83.385 90.3064C83.506 90.0644 83.7883 89.9434 84.0707 90.024L86.652 91.234C86.894 91.355 87.015 91.6374 86.9343 91.9197C86.8537 92.202 86.5713 92.2827 86.3293 92.2424Z" fill="#FEC272"/>
<path d="M83.8287 94.985C83.7077 94.9446 83.627 94.8237 83.5867 94.7027C83.506 94.4203 83.627 94.138 83.9093 94.0573L85.926 93.412C86.2083 93.3313 86.4907 93.4523 86.5713 93.7346C86.652 94.017 86.531 94.2993 86.2487 94.38L84.232 95.0253C84.0707 95.0657 83.9497 95.0656 83.8287 94.985Z" fill="#FEC272"/>
<path d="M143.562 74.3344C143.441 74.3747 143.28 74.3344 143.159 74.294C142.917 74.1327 142.836 73.81 142.998 73.568L144.167 71.5917C144.329 71.3497 144.651 71.269 144.893 71.4304C145.135 71.5917 145.216 71.9144 145.055 72.1564L143.885 74.1327C143.804 74.2134 143.683 74.294 143.562 74.3344Z" fill="#FEC272"/>
<path d="M144.45 76.8351C144.248 76.8351 144.046 76.6738 144.006 76.4721C143.925 76.1898 144.087 75.9074 144.369 75.8268L147.797 74.7781C148.08 74.6974 148.362 74.8588 148.443 75.1411C148.523 75.4234 148.362 75.7058 148.08 75.7864L144.651 76.8351C144.571 76.8351 144.53 76.8754 144.45 76.8351Z" fill="#FEC272"/>
<path d="M145.74 80.5053C145.7 80.5053 145.66 80.5053 145.579 80.465L144.167 79.9003C143.885 79.7793 143.764 79.497 143.885 79.2147C144.006 78.9323 144.288 78.8113 144.571 78.9323L145.982 79.497C146.265 79.618 146.386 79.9003 146.265 80.1827C146.184 80.4247 145.942 80.5457 145.74 80.5053Z" fill="#FEC272"/>
<path d="M121.944 54.2483C121.903 54.2483 121.863 54.2483 121.823 54.2483C121.54 54.1676 121.379 53.9256 121.419 53.6433L122.347 49.5696C122.428 49.2873 122.67 49.126 122.952 49.1663C123.234 49.247 123.396 49.489 123.355 49.7713L122.428 53.845C122.387 54.087 122.186 54.2483 121.944 54.2483Z" fill="#FEC272"/>
<path d="M124.485 55.9826C124.323 55.9826 124.122 55.9019 124.041 55.7406C123.88 55.4986 123.96 55.1759 124.243 55.0146L129.083 52.1912C129.325 52.0299 129.647 52.1106 129.809 52.3929C129.97 52.6349 129.889 52.9576 129.607 53.1189L124.767 55.9422C124.646 55.9422 124.565 55.9826 124.485 55.9826Z" fill="#FEC272"/>
<path d="M130.817 59.7336L125.614 59.4512C125.332 59.4512 125.09 59.2092 125.13 58.9269C125.13 58.6446 125.372 58.4026 125.654 58.4429L130.817 58.7252C131.099 58.7252 131.341 58.9672 131.301 59.2496C131.341 59.5319 131.099 59.7336 130.817 59.7336Z" fill="#FEC272"/>
</svg>
