<svg width="15" height="18" viewBox="0 0 11 13" fill="none" xmlns="http://www.w3.org/2000/svg">
<path fill-rule="evenodd" clip-rule="evenodd" d="M4.91723 12.3739C4.95617 12.6567 5.20225 12.8748 5.5 12.8748C5.82483 12.8748 6.08815 12.6153 6.08815 12.2952L6.08815 2.10835L9.80762 5.78823L9.87346 5.84448C10.1034 6.01329 10.4301 5.99525 10.6394 5.78992C10.8695 5.56407 10.8703 5.19712 10.6411 4.97032L5.92896 0.307805C5.82741 0.201173 5.68538 0.132418 5.52704 0.125358C5.36712 0.118045 5.20474 0.174712 5.08283 0.295359L0.358871 4.97036L0.302066 5.03548C0.131722 5.26272 0.151409 5.58465 0.360662 5.78996C0.59084 6.0158 0.96323 6.01501 1.19242 5.78819L4.91186 2.10727L4.91186 12.2952L4.91723 12.3739Z" fill="white"/>
</svg>
