<svg width="12" height="7" viewBox="0 0 12 7" fill="none" xmlns="http://www.w3.org/2000/svg">
<path d="M6.59488 4.91642C6.4386 5.07264 6.22668 5.16041 6.00571 5.16041C5.78474 5.16041 5.57282 5.07264 5.41654 4.91642L1.59488 1.09559C1.43771 0.943787 1.22721 0.859792 1.00871 0.861691C0.790212 0.863589 0.581202 0.951231 0.426695 1.10574C0.272188 1.26024 0.184547 1.46925 0.182649 1.68775C0.18075 1.90625 0.264746 2.11675 0.416544 2.27392L4.23821 6.09225C4.70703 6.56093 5.3428 6.82422 6.00571 6.82422C6.66862 6.82422 7.30439 6.56093 7.77321 6.09225L11.5949 2.27059C11.7467 2.11342 11.8307 1.90292 11.8288 1.68442C11.8269 1.46592 11.7392 1.25691 11.5847 1.1024C11.4302 0.947896 11.2212 0.860256 11.0027 0.858357C10.7842 0.856459 10.5737 0.940454 10.4165 1.09225L6.59488 4.91642Z" fill="#A0AEC0"/>
</svg>
