<svg width="7" height="13" viewBox="0 0 6 13" fill="none" xmlns="http://www.w3.org/2000/svg">
<path d="M1.93612 7.08914C1.77989 6.93287 1.69213 6.72094 1.69213 6.49997C1.69213 6.279 1.77989 6.06708 1.93612 5.91081L5.75695 2.08914C5.90875 1.93197 5.99275 1.72147 5.99085 1.50297C5.98895 1.28447 5.90131 1.07546 5.7468 0.920958C5.5923 0.766451 5.38329 0.67881 5.16479 0.676911C4.94629 0.675013 4.73579 0.759008 4.57862 0.910807L0.760287 4.73247C0.291609 5.20129 0.0283203 5.83706 0.0283203 6.49997C0.0283203 7.16288 0.291609 7.79865 0.760287 8.26747L4.58195 12.0891C4.73912 12.2409 4.94962 12.3249 5.16812 12.323C5.38662 12.3211 5.59563 12.2335 5.75014 12.079C5.90464 11.9245 5.99228 11.7155 5.99418 11.497C5.99608 11.2785 5.91209 11.068 5.76029 10.9108L1.93612 7.08914Z" fill="#3669C9"/>
</svg>
