<svg width="7" height="13" viewBox="0 0 7 13" fill="none" xmlns="http://www.w3.org/2000/svg">
<path d="M4.26896 5.91086C4.42518 6.06713 4.51295 6.27906 4.51295 6.50003C4.51295 6.721 4.42518 6.93292 4.26896 7.08919L0.448125 10.9109C0.296326 11.068 0.212331 11.2785 0.21423 11.497C0.216128 11.7155 0.30377 11.9245 0.458276 12.079C0.612783 12.2335 0.821793 12.3212 1.04029 12.3231C1.25879 12.325 1.46929 12.241 1.62646 12.0892L5.44479 8.26753C5.91347 7.79871 6.17676 7.16294 6.17676 6.50003C6.17676 5.83712 5.91347 5.20135 5.44479 4.73253L1.62313 0.91086C1.46596 0.759061 1.25545 0.675066 1.03696 0.676965C0.81846 0.678864 0.609449 0.766505 0.454943 0.921012C0.300436 1.07552 0.212795 1.28453 0.210896 1.50303C0.208998 1.72152 0.292993 1.93203 0.444791 2.08919L4.26896 5.91086Z" fill="#3669C9"/>
</svg>
