<svg width="25" height="24" viewBox="0 0 25 24" fill="none" xmlns="http://www.w3.org/2000/svg">
<path d="M14.9156 5.493V4.585C14.9505 3.67091 14.6216 2.78025 14.001 2.10825C13.3803 1.43625 12.5186 1.03771 11.6046 1H7.22561C6.3118 1.03797 5.45031 1.43661 4.82988 2.10859C4.20945 2.78057 3.88068 3.67107 3.91561 4.585V15.415C3.88068 16.3289 4.20945 17.2194 4.82988 17.8914C5.45031 18.5634 6.3118 18.962 7.22561 19H11.6156C12.5267 18.9618 13.3855 18.5641 14.004 17.8941C14.6225 17.224 14.9503 16.3362 14.9156 15.425V5.493Z" fill="#FFECE8" stroke="#FE6E4C" stroke-width="1.5" stroke-miterlimit="10" stroke-linecap="round" stroke-linejoin="round"/>
<path d="M22.9156 9.493V8.585C22.9505 7.67091 22.6216 6.78025 22.001 6.10825C21.3803 5.43625 20.5186 5.03771 19.6046 5H15.2256C14.3118 5.03797 13.4503 5.43661 12.8299 6.10859C12.2095 6.78057 11.8807 7.67107 11.9156 8.585V19.415C11.8807 20.3289 12.2095 21.2194 12.8299 21.8914C13.4503 22.5634 14.3118 22.962 15.2256 23H19.6156C20.5267 22.9618 21.3855 22.5641 22.004 21.8941C22.6225 21.224 22.9503 20.3362 22.9156 19.425V9.493Z" fill="#FFECE8" stroke="#FE6E4C" stroke-width="1.5" stroke-miterlimit="10" stroke-linecap="round" stroke-linejoin="round"/>
</svg>
