<svg width="15" height="16" viewBox="0 0 15 16" fill="none" xmlns="http://www.w3.org/2000/svg">
<path d="M3.91781 11.2869H2.33355C1.5704 11.2869 1.05581 10.7652 0.951785 9.90437C0.803286 8.84502 0.81758 6.9312 0.951785 5.84961C1.05581 5.10314 1.5704 4.51549 2.33355 4.51549H3.91781L6.70278 2.23717C6.94658 2.0299 7.36826 1.83455 7.62476 1.84011C8.16714 1.82343 8.66981 2.21811 8.86279 2.86214C8.9692 3.2727 8.99858 3.75155 9.05258 4.19467C9.10658 4.62587 9.13834 4.58696 9.14708 5.88693" stroke="#0C1A30" stroke-width="1.5" stroke-linecap="round" stroke-linejoin="round"/>
<path d="M9.14445 9.64355C9.13016 10.6457 9.09601 11.2556 9.05234 11.6074C8.99834 12.0505 8.98246 12.4881 8.86254 12.9391C8.66957 13.584 8.1669 13.9778 7.62451 13.9612C7.36801 13.9675 7.0051 13.8111 6.76131 13.6046L5.71387 12.7501" stroke="#0C1A30" stroke-width="1.5" stroke-linecap="round" stroke-linejoin="round"/>
<path d="M13.7465 1.47046L0.885742 14.3312" stroke="#0C1A30" stroke-width="1.5" stroke-linecap="round" stroke-linejoin="round"/>
</svg>
