<svg width="18" height="14" viewBox="0 0 18 14" fill="none" xmlns="http://www.w3.org/2000/svg">
<path fill-rule="evenodd" clip-rule="evenodd" d="M9.35376 10.8564C9.30011 11.2958 9.28433 11.7281 9.16442 12.1754C8.97351 12.8129 8.47415 13.2028 7.93534 13.187C7.67975 13.1933 7.32002 13.0377 7.07783 12.8341L4.25284 10.5396H2.67902C1.92012 10.5396 1.40892 10.0224 1.30558 9.17032C1.15806 8.12172 1.17226 6.22734 1.30558 5.15752C1.40892 4.41863 1.92012 3.83617 2.67902 3.83617H4.25284L7.01945 1.58098C7.26164 1.37582 7.67975 1.18245 7.93534 1.18796C8.47415 1.17224 8.97351 1.5629 9.16442 2.19961C9.27092 2.60678 9.30011 3.07998 9.35376 3.51939C9.48234 4.54676 9.48234 9.82903 9.35376 10.8564Z" stroke="#0C1A30" stroke-width="1.5" stroke-linecap="round" stroke-linejoin="round"/>
<path d="M12.333 3.29541C13.014 4.27491 13.4228 5.58891 13.4228 7.05141C13.4228 8.51391 13.014 9.82716 12.333 10.8067" stroke="#0C1A30" stroke-width="1.5" stroke-linecap="round" stroke-linejoin="round"/>
<path d="M14.9062 1C16.0035 2.578 16.662 4.6945 16.662 7.051C16.662 9.4075 16.0035 11.5247 14.9062 13.1027" stroke="#0C1A30" stroke-width="1.5" stroke-linecap="round" stroke-linejoin="round"/>
</svg>
